<svg width="171" height="62" viewBox="0 0 171 62" fill="none" xmlns="http://www.w3.org/2000/svg">
<path d="M17.0364 26.6909C16.9884 27.8211 16.9645 29.2522 16.9645 30.9837C16.9645 32.7152 16.9884 34.1581 17.0364 35.3125C17.0843 36.4428 17.1802 37.3446 17.3241 38.018C17.4919 38.6913 17.7198 39.1603 18.0076 39.4249C18.3193 39.6894 18.727 39.8217 19.2306 39.8217C19.7342 39.8217 20.1298 39.6894 20.4176 39.4249C20.7294 39.1603 20.9572 38.6913 21.1011 38.018C21.2689 37.3446 21.3768 36.4428 21.4248 35.3125C21.4728 34.1581 21.4968 32.7152 21.4968 30.9837C21.4968 29.2522 21.4728 27.8211 21.4248 26.6909C21.3768 25.5365 21.2689 24.6226 21.1011 23.9493C20.9572 23.2759 20.7294 22.8069 20.4176 22.5424C20.1298 22.2778 19.7342 22.1455 19.2306 22.1455C18.727 22.1455 18.3193 22.2778 18.0076 22.5424C17.7198 22.8069 17.4919 23.2759 17.3241 23.9493C17.1802 24.6226 17.0843 25.5365 17.0364 26.6909Z" fill="#1A685B"/>
<path fill-rule="evenodd" clip-rule="evenodd" d="M18.3108 4.18613C9.63741 4.37226 2.74321 11.55 2.88238 20.249L3.05338 30.9373L2.88238 41.6256C2.74321 50.3247 9.63741 57.5024 18.3108 57.6884L28.9701 57.9172L39.6295 57.6884C48.3029 57.5024 55.1972 50.3247 55.058 41.6256L54.887 30.9373L55.058 20.249C55.1972 11.55 48.3029 4.37226 39.6295 4.18613L28.9701 3.95752L18.3108 4.18613ZM29.3384 44.5475L25.3097 48.0466L21.6407 44.0785C21.3529 44.1267 21.0651 44.1628 20.7774 44.1868C20.5135 44.2348 20.2138 44.259 19.8781 44.259H19.2306C17.528 44.259 16.0891 44.0305 14.9141 43.5735C13.739 43.1166 12.7918 42.359 12.0724 41.3009C11.3531 40.2187 10.8374 38.8358 10.5257 37.1525C10.2139 35.4449 10.0581 33.3887 10.0581 30.9838C10.0581 28.5789 10.2139 26.5348 10.5257 24.8513C10.8374 23.1438 11.3531 21.761 12.0724 20.7028C12.7918 19.6206 13.739 18.839 14.9141 18.358C16.0891 17.8529 17.528 17.6004 19.2306 17.6004C20.9333 17.6004 22.372 17.8529 23.5471 18.358C24.7221 18.839 25.6694 19.6206 26.3888 20.7028C27.1082 21.761 27.6238 23.1438 27.9356 24.8513C28.2473 26.5348 28.4032 28.5789 28.4032 30.9838C28.4032 33.4608 28.2354 35.5531 27.8995 37.2606C27.5639 38.9681 27.0123 40.363 26.2449 41.4452L29.3384 44.5475ZM40.6931 27.3764V25.9335C40.6931 24.4665 40.5492 23.4684 40.2614 22.9394C39.9737 22.4103 39.5061 22.1457 38.8585 22.1457C38.355 22.1457 37.9474 22.278 37.6356 22.5426C37.3478 22.8071 37.12 23.2761 36.9522 23.9495C36.8083 24.6228 36.7124 25.5367 36.6644 26.6911C36.6163 27.8213 36.5924 29.2523 36.5924 30.9838C36.5924 32.7154 36.6163 34.1582 36.6644 35.3126C36.7124 36.443 36.8083 37.3448 36.9522 38.0182C37.12 38.6915 37.3478 39.1605 37.6356 39.4251C37.9474 39.6896 38.355 39.8219 38.8585 39.8219C39.2662 39.8219 39.602 39.7257 39.8657 39.5333C40.1296 39.3168 40.3334 38.9681 40.4773 38.4872C40.6212 38.0062 40.7171 37.3688 40.7651 36.5752C40.837 35.7576 40.8729 34.7355 40.8729 33.509H47.3476V35.4209C47.3476 37.2246 47.1078 38.7036 46.6283 39.8579C46.1487 41.0123 45.5132 41.9262 44.7219 42.5995C43.9304 43.2489 43.0192 43.6817 41.988 43.8982C40.9809 44.1387 39.9377 44.259 38.8585 44.259C36.9881 44.259 35.4534 44.0305 34.2543 43.5735C33.0553 43.1166 32.1201 42.359 31.4486 41.3009C30.7771 40.2187 30.3095 38.8358 30.0457 37.1525C29.8059 35.4449 29.686 33.3887 29.686 30.9838C29.686 28.5308 29.8299 26.4506 30.1177 24.7431C30.4294 23.0356 30.9451 21.6527 31.6644 20.5946C32.3838 19.5364 33.331 18.7788 34.5061 18.3219C35.6811 17.8409 37.132 17.6004 38.8585 17.6004C40.3694 17.6004 41.6523 17.7929 42.7075 18.1777C43.7626 18.5625 44.6139 19.1156 45.2614 19.837C45.9328 20.5345 46.4124 21.3882 46.7002 22.3983C47.012 23.3842 47.1678 24.5026 47.1678 25.7532V27.3764H40.6931Z" fill="#1A685B"/>
<path fill-rule="evenodd" clip-rule="evenodd" d="M86.493 22.3415L92.3572 28.4445L98.2215 22.3415H108.41L97.4438 32.8039L108.41 43.2662H98.2215L92.3572 37.1476L86.493 43.2662H76.2889L87.2552 32.8039L76.2889 22.3415H86.493ZM85.9276 32.8039L74.0004 21.4248H86.8828L92.3572 27.1221L97.8316 21.4248H110.254V21.4093H131.308C136.123 21.3599 140.198 25.3973 140.132 30.2416C140.131 31.9841 139.661 33.5903 138.72 35.0198C138.013 36.1019 137.116 36.9922 136.041 37.6692L140.53 43.4499V39.701C140.53 36.7638 142.719 34.8912 145.237 33.6494C147.779 32.3957 150.988 31.6123 153.659 30.9786L153.663 30.9777L153.693 30.9701C155.34 30.5639 156.743 30.2181 157.741 29.8452C158.246 29.6562 158.577 29.4851 158.767 29.3397C158.791 29.3212 158.81 29.3049 158.827 29.2908C158.77 29.2375 158.651 29.1579 158.418 29.0663C157.875 28.853 156.948 28.6923 155.543 28.6919C154.042 28.7074 152.766 28.8299 151.895 29.1362C151.467 29.2872 151.207 29.4592 151.061 29.6207C150.938 29.7593 150.864 29.9238 150.871 30.1819L150.893 31.1206H140.857V30.2039C140.857 28.322 141.225 26.7485 141.962 25.4593C142.702 24.1643 143.781 23.2187 145.096 22.5406C147.677 21.2099 151.232 20.8799 155.197 20.8799C159.256 20.8799 162.626 21.3496 165.012 22.559C166.22 23.1719 167.201 23.9875 167.876 25.0483C168.552 26.1118 168.884 27.3636 168.884 28.7871C168.884 31.4213 167.298 33.0992 165.356 34.1927C163.469 35.2545 161.095 35.8575 159.123 36.3399H168.542V44.1519H141.075L141.087 44.1675H130.085L126.149 39.0608H120.237V44.1675H110.682L110.699 44.183H97.8309L92.3572 38.4719L86.8835 44.183H74.0004L85.9276 32.8039ZM110.254 43.7585V21.8492L98.7713 32.8039L110.254 43.7585ZM126.6 38.1441L130.536 43.2507H139.215L134.657 37.3811C134.943 37.2485 135.215 37.1019 135.477 36.9414C136.474 36.3291 137.302 35.5156 137.955 34.5165C138.795 33.2398 139.215 31.8074 139.215 30.235C139.278 25.9068 135.623 22.2792 131.314 22.3259H111.17V43.2507H119.32V38.1441H126.6ZM154.326 37.2566C154.612 36.9066 155.129 36.609 155.815 36.3399C156.624 36.0223 157.666 35.7442 158.837 35.4662C162.85 34.4853 167.968 33.1464 167.968 28.7871C167.968 23.6804 163.239 21.7966 155.197 21.7966C147.635 21.7966 142.272 23.0321 141.806 29.2871C141.784 29.5815 141.772 29.8869 141.772 30.2039H149.955C149.954 30.1693 149.954 30.1353 149.955 30.1018C150 28.2419 152.56 27.8057 155.539 27.7751C158.447 27.7751 159.785 28.429 159.785 29.3165C159.785 30.4119 157.204 31.0487 153.963 31.8479L153.875 31.8697C148.492 33.1464 141.446 34.9213 141.446 39.701V43.2351H167.625V37.2566H154.326ZM158.879 29.3611C158.879 29.3611 158.873 29.3553 158.871 29.3418C158.879 29.354 158.879 29.3611 158.879 29.3611ZM130.134 30.235C130.134 29.745 129.75 29.3614 129.26 29.3614H120.237V31.0931H129.26C129.523 31.0931 129.707 31.0131 129.872 30.8479C130.06 30.6598 130.134 30.4717 130.134 30.235ZM131.049 30.235C131.049 29.2385 130.256 28.4445 129.26 28.4445H119.32V32.0098H129.26C129.757 32.0098 130.178 31.8386 130.52 31.4961C130.878 31.138 131.049 30.7177 131.049 30.235Z" fill="#FFAC00"/>
<path d="M77.0432 58.362H80.9471V53.0013L84.8583 58.362H86.8102L90.7215 53.0013V58.362H94.6254V48.3135H89.7456L85.8343 53.3377L81.9305 48.3135H77.0432V58.362Z" fill="#1A685B"/>
<path d="M102.85 48.0669C99.0806 48.0744 95.9963 49.1659 96.0112 52.9715V53.7041C95.9963 57.5022 99.0806 58.6014 102.85 58.6087C106.612 58.6014 109.697 57.5022 109.682 53.7041V52.9715C109.682 49.1734 106.62 48.0669 102.85 48.0669ZM105.778 53.4575C105.8 55.1023 104.444 55.4014 102.85 55.4238C101.249 55.4014 99.8926 55.1023 99.915 53.4575V53.2108C99.8926 51.5733 101.249 51.2743 102.85 51.2518C104.444 51.2743 105.8 51.5733 105.778 53.2108V53.4575Z" fill="#1A685B"/>
<path d="M120.618 53.3528C120.618 54.3621 120.045 55.192 119.032 55.192H114.755V51.5135H119.032C120.045 51.5135 120.618 52.3359 120.618 53.3528ZM110.851 48.3286V58.3769H119.762C122.511 58.4144 124.552 56.0817 124.53 53.3528C124.552 50.6089 122.511 48.2911 119.762 48.3286H110.851Z" fill="#1A685B"/>
<path d="M135.399 53.4649C135.421 55.1171 134.067 55.4013 132.471 55.4237C130.87 55.4013 129.522 55.1171 129.536 53.4649V48.3135H125.632V53.7116C125.618 57.5097 128.717 58.6013 132.471 58.6086C136.226 58.6013 139.326 57.5097 139.311 53.7116V48.3135H135.399V53.4649Z" fill="#1A685B"/>
<path d="M141.068 48.3135V58.362H152.789V55.177H144.973V48.3135H141.068Z" fill="#1A685B"/>
<path d="M154.121 58.377H165.841V55.7976H158.025V54.5116H165.841V52.1865H158.025V50.9004H165.841V48.3286H154.121V58.377Z" fill="#1A685B"/>
<path d="M79.2909 10.0328V7.91515H85.0772C85.3575 7.91515 85.6015 8.01686 85.8004 8.2295C86.0084 8.43305 86.1078 8.68263 86.1078 8.97852C86.1078 9.2653 86.0084 9.51488 85.8004 9.72766C85.6015 9.93108 85.3575 10.0328 85.0772 10.0328H79.2909ZM74.5536 4.28103V16.7093H79.2909V13.6761H86.2616C88.7659 13.7132 90.8905 11.54 90.8544 8.97852C90.8905 6.40789 88.7659 4.25319 86.2616 4.28103H74.5536Z" fill="#1A685B"/>
<path d="M100.284 3.95752C95.7093 3.96675 91.9664 5.3169 91.9844 10.0238V10.93C91.9664 15.6276 95.7093 16.9869 100.284 16.9961C104.849 16.9869 108.593 15.6276 108.574 10.93V10.0238C108.574 5.32614 104.859 3.95752 100.284 3.95752ZM103.836 10.6248C103.864 12.6592 102.219 13.029 100.284 13.0569C98.3402 13.029 96.6948 12.6592 96.7219 10.6248V10.3196C96.6948 8.29449 98.3402 7.9246 100.284 7.89689C102.219 7.9246 103.864 8.29449 103.836 10.3196V10.6248Z" fill="#1A685B"/>
<path d="M127.045 12.1506L124.233 4.28125H118.899L116.079 12.1506L113.267 4.28125H107.933L113.267 16.7095H118.899L121.567 10.4954L124.233 16.7095H129.865L135.201 4.28125H129.865L127.045 12.1506Z" fill="#1A685B"/>
<path d="M135.562 16.7095H149.783V13.5192H140.299V11.9286H149.783V9.05274H140.299V7.46225H149.783V4.28125H135.562V16.7095Z" fill="#1A685B"/>
<path d="M152.306 4.27175V16.7001H157.042V13.667H161.274L163.562 16.7001H168.606L165.957 13.2139C166.753 12.8347 167.395 12.2614 167.873 11.5124C168.363 10.7542 168.606 9.90346 168.606 8.96937C168.643 6.39861 166.517 4.24405 164.014 4.27175H152.306ZM162.82 7.906C163.398 7.906 163.86 8.3776 163.86 8.96937C163.86 9.25602 163.76 9.50574 163.552 9.71838C163.354 9.92193 163.109 10.0236 162.82 10.0236H157.042V7.906H162.82Z" fill="#1A685B"/>
</svg>
