<svg width="76" height="62" viewBox="0 0 76 62" fill="none" xmlns="http://www.w3.org/2000/svg">
<path d="M25.2093 21.3086C25.2093 21.1511 25.2093 18.8599 25.2093 18.8599H23.8561C23.8561 18.8599 23.8561 21.1155 23.8561 21.1867C23.8561 21.6033 23.4724 21.8827 22.8261 21.8827C22.1495 21.8827 21.7809 21.6134 21.7809 21.1816C21.7809 21.1105 21.7809 18.8599 21.7809 18.8599H20.4125C20.4125 18.8599 20.4125 20.9987 20.4125 21.1816C20.4125 22.3907 21.3971 22.9038 22.7705 22.9038C24.2399 22.9038 25.2093 22.3856 25.2093 21.3086Z" fill="#1A685B"/>
<path d="M29.7667 22.8479V21.7862H27.3532V18.8599H25.9847V22.8479H29.7667Z" fill="#1A685B"/>
<path d="M33.8334 19.8607V18.8599H29.1022V19.8607H30.7735V22.8479H32.157V19.8607H33.8334Z" fill="#1A685B"/>
<path d="M35.6526 22.8479V18.8599H34.264V22.8479H35.6526Z" fill="#1A685B"/>
<path d="M42.0231 22.8479V18.8599H40.3113L39.2308 21.2528L38.2008 18.8599H36.4335V22.8479H37.7211V20.6939L38.6501 22.8479H39.8014L40.7405 20.6939V22.8479H42.0231Z" fill="#1A685B"/>
<path d="M44.1677 22.1112H46.3087L46.6572 22.8479H48.1164L46.1168 18.8599H44.4859L42.3702 22.8479H43.7991L44.1677 22.1112ZM45.8795 21.2171H44.6121L45.112 20.2569L45.2635 19.8912L45.4049 20.2519L45.8795 21.2171Z" fill="#1A685B"/>
<path d="M52.4081 19.8607V18.8599H47.6771V19.8607H49.3484V22.8479H50.732V19.8607H52.4081Z" fill="#1A685B"/>
<path d="M57.0092 22.8479V21.8573H54.1674V21.339H56.8932V20.3687H54.1674V19.8556H56.9743V18.8599H52.8344V22.8479H57.0092Z" fill="#1A685B"/>
<path d="M30.732 24.9678H29.4242C29.4242 24.9678 28.5708 27.4774 28.5708 27.5384C28.5708 27.4774 27.773 24.9678 27.773 24.9678H26.3542C26.3542 24.9678 25.5614 27.4774 25.5614 27.5384C25.5614 27.4774 24.703 24.9678 24.703 24.9678H23.2336L24.7182 28.9558H26.1976C26.1976 28.9558 26.9954 26.5732 27.0005 26.5071C27.0055 26.5732 27.7983 28.9558 27.7983 28.9558H29.2827L30.732 24.9678Z" fill="#1A685B"/>
<path d="M32.5214 28.9558V24.9678H31.1328V28.9558H32.5214Z" fill="#1A685B"/>
<path d="M37.9224 28.9558V24.9678H36.6298V27.1371L34.7262 24.9678H33.3022V28.9558H34.605V26.7357L36.5692 28.9558H37.9224Z" fill="#1A685B"/>
<path d="M43.3317 28.9558V24.9678H42.0391V27.1371L40.1355 24.9678H38.7117V28.9558H40.0143V26.7357L41.9785 28.9558H43.3317Z" fill="#1A685B"/>
<path d="M48.2966 28.9558V27.9652H45.4539V27.4469H48.1805V26.4766H45.4539V25.9635H48.2613V24.9678H44.1208V28.9558H48.2966Z" fill="#1A685B"/>
<path d="M53.6345 26.1819C53.6345 25.8213 53.5482 25.5621 53.3664 25.3742C53.1292 25.1202 52.7204 24.9678 52.0939 24.9678H48.9385V28.9558H50.2867V27.5486H51.5136L52.4986 28.9558H54.0032L52.8067 27.3301C53.0737 27.2895 53.2914 27.1269 53.4321 26.9339C53.5585 26.7561 53.6345 26.4918 53.6345 26.1819ZM52.3219 26.3089C52.3219 26.3751 52.3116 26.4563 52.2757 26.5173C52.2254 26.6188 52.0939 26.6595 51.8772 26.6595H50.2917V25.933H51.8515C52.0641 25.933 52.2059 25.9686 52.2757 26.1007C52.3116 26.1515 52.3219 26.2328 52.3219 26.3089Z" fill="#1A685B"/>
<path d="M25.7786 32.8794C25.7786 32.8142 25.7786 30.9307 25.7786 30.9307H25.3059C25.3059 30.9307 25.3059 32.8065 25.3059 32.8487C25.3059 33.3013 24.8826 33.5584 24.2726 33.5584C23.552 33.5584 23.1974 33.2822 23.1974 32.8449C23.1974 32.8026 23.1974 30.9307 23.1974 30.9307H22.7208C22.7208 30.9307 22.7208 32.7567 22.7208 32.8295C22.7208 33.6275 23.3385 33.9803 24.2536 33.9803C25.199 33.9803 25.7786 33.6044 25.7786 32.8794Z" fill="#1A685B"/>
<path d="M29.1707 33.942V33.5009H27.108V30.9307H26.6315V33.942H29.1707Z" fill="#1A685B"/>
<path d="M31.8789 31.368V30.9307H28.699V31.368H30.0487V33.942H30.5291V31.368H31.8789Z" fill="#1A685B"/>
<path d="M35.2676 31.7822C35.2676 31.5674 35.2218 31.4101 35.1418 31.2835C35.0007 31.0725 34.73 30.9307 34.2801 30.9307H32.3433V33.942H32.8122V32.6722H34.1771L35.0121 33.942H35.5611L34.6576 32.5916C34.8863 32.5649 35.0655 32.4344 35.1608 32.2656C35.2295 32.1505 35.2676 31.9818 35.2676 31.7822ZM34.7948 31.8206C34.7948 31.905 34.7758 32.0086 34.7415 32.0777C34.6805 32.1889 34.5394 32.2464 34.3106 32.2502H32.816C32.816 32.2426 32.816 31.3603 32.816 31.3603H34.2229C34.5089 31.3603 34.6614 31.4293 34.7415 31.5598C34.7758 31.6211 34.7948 31.7247 34.7948 31.8206Z" fill="#1A685B"/>
<path d="M36.6245 33.1978H38.4889L38.8702 33.942H39.3811L37.8636 30.9307H37.3031L35.7361 33.942H36.2355L36.6245 33.1978ZM38.2906 32.772H36.8304L37.4365 31.6173L37.57 31.3373L37.7035 31.6173L38.2906 32.772Z" fill="#1A685B"/>
<path d="M44.2166 33.6543C44.3348 33.5162 44.3882 33.3206 44.3882 33.1096C44.3882 32.9101 44.331 32.7106 44.2128 32.5878C44.0946 32.4728 43.904 32.3769 43.6942 32.3577C43.8163 32.3385 43.9116 32.2618 43.9764 32.1812C44.0794 32.0623 44.1403 31.8705 44.1403 31.6787C44.1403 31.4753 44.0794 31.2912 43.9497 31.1646C43.8087 31.0227 43.5684 30.9307 43.2329 30.9307H41.2197V33.942H43.3816C43.7858 33.942 44.0679 33.8385 44.2166 33.6543ZM43.6484 31.7746C43.6484 31.9088 43.6065 32.0278 43.5341 32.0968C43.4616 32.1774 43.3396 32.2119 43.21 32.2119H41.6849V31.3449H43.1223C43.2977 31.3449 43.4311 31.3794 43.5226 31.4639C43.6027 31.5405 43.6484 31.6518 43.6484 31.7746ZM43.801 33.3627C43.7056 33.4702 43.5417 33.5239 43.3015 33.5239H41.6849V32.6301H43.313C43.5341 32.6301 43.6866 32.6761 43.7782 32.7643C43.862 32.8449 43.8964 32.9485 43.8964 33.0674C43.8964 33.1901 43.8697 33.2937 43.801 33.3627Z" fill="#1A685B"/>
<path d="M47.8495 33.942V33.5009H45.5238V32.6416H47.758V32.2042H45.5238V31.368H47.8228V30.9307H45.0586V33.942H47.8495Z" fill="#1A685B"/>
<path d="M51.5742 33.0518C51.5742 32.5608 51.2506 32.3076 50.4537 32.2155C50.3198 32.1964 50.03 32.1657 49.8737 32.1465C49.134 32.0583 48.9091 31.9585 48.9091 31.7016C48.9091 31.4522 49.1569 31.3102 49.9042 31.3102C50.4835 31.3102 50.7813 31.4253 50.9302 31.6324C50.9723 31.69 50.9949 31.7591 51.0062 31.8127H51.5166C51.5023 31.7245 51.4673 31.6017 51.4139 31.502C51.2085 31.1453 50.7854 30.8882 49.9042 30.8882C48.8519 30.8844 48.4173 31.2681 48.4173 31.7437C48.4173 32.2194 48.7566 32.461 49.6374 32.5647C49.7899 32.5838 50.0605 32.6145 50.194 32.6299C50.8768 32.7142 51.0904 32.8179 51.0904 33.1055C51.0904 33.3703 50.846 33.5621 50.0643 33.5621C49.4239 33.5621 49.0806 33.447 48.9434 33.2245C48.9015 33.1631 48.8748 33.0672 48.871 33.002H48.3677C48.3792 33.1401 48.4173 33.2897 48.4859 33.4086C48.6842 33.7731 49.1493 33.9841 50.0491 33.9841C51.1243 33.9841 51.5742 33.6349 51.5742 33.0518Z" fill="#1A685B"/>
<path d="M54.9932 31.368V30.9307H51.8135V31.368H53.163V33.942H53.6436V31.368H54.9932Z" fill="#1A685B"/>
<path d="M21.3712 36.5596C21.3712 36.2527 21.3102 36.0455 21.2072 35.8882C21.0624 35.6618 20.7801 35.543 20.2883 35.543H18.3972V38.5543H18.87V37.5722C18.87 37.5722 20.2045 37.5722 20.2693 37.5722C20.7306 37.5684 21.0471 37.461 21.2149 37.2155C21.3216 37.0659 21.3712 36.8511 21.3712 36.5596ZM20.8907 36.5596C20.8907 36.7129 20.8754 36.828 20.8259 36.9048C20.7382 37.0467 20.559 37.1349 20.1892 37.1349C20.1549 37.1349 18.87 37.1349 18.87 37.1349V35.9726H20.2045C20.5514 35.9726 20.7306 36.0531 20.8259 36.2104C20.8716 36.2794 20.8907 36.4061 20.8907 36.5596Z" fill="#1A685B"/>
<path d="M24.8222 38.5543V38.1132H22.4964V37.2539H24.7307V36.8166H22.4964V35.9803H24.7955V35.543H22.0312V38.5543H24.8222Z" fill="#1A685B"/>
<path d="M28.4594 36.3945C28.4594 36.1797 28.4137 36.0224 28.3336 35.8959C28.1925 35.6848 27.9218 35.543 27.4719 35.543H25.535V38.5543H26.004V37.2846H27.369L28.204 38.5543H28.753L27.8493 37.204C28.0782 37.1772 28.2574 37.0467 28.3527 36.8779C28.4213 36.7628 28.4594 36.5941 28.4594 36.3945ZM27.9866 36.4329C27.9866 36.5173 27.9675 36.6209 27.9332 36.69C27.8722 36.8012 27.7311 36.8587 27.5024 36.8625H26.0078C26.0078 36.8549 26.0078 35.9726 26.0078 35.9726H27.4147C27.7006 35.9726 27.8531 36.0417 27.9332 36.1721C27.9675 36.2334 27.9866 36.337 27.9866 36.4329Z" fill="#1A685B"/>
<path d="M31.9941 35.9803V35.543H29.3328V38.5543H29.8055V37.2731H31.895V36.8242H29.8055V35.9803H31.9941Z" fill="#1A685B"/>
<path d="M34.1642 35.4888C33.5274 35.4888 33.089 35.646 32.7762 35.976C32.5132 36.233 32.3988 36.5898 32.3988 37.0386C32.3988 37.5296 32.5475 37.8979 32.822 38.1472C33.1157 38.4427 33.5655 38.596 34.1642 38.596C34.7818 38.596 35.2622 38.4427 35.5482 38.1318C35.796 37.8787 35.9256 37.5181 35.9256 37.0347C35.9256 36.5667 35.815 36.2099 35.552 35.9568C35.2508 35.6422 34.8008 35.4888 34.1642 35.4888ZM34.1642 38.1664C33.7447 38.1664 33.4473 38.0744 33.2224 37.8902C32.9937 37.7023 32.883 37.4145 32.883 37.0462C32.883 36.701 32.9784 36.4133 33.1614 36.2406C33.3711 36.0412 33.6913 35.9223 34.1604 35.9223C34.6445 35.9223 34.9457 36.0374 35.1706 36.2368C35.3614 36.4056 35.4452 36.7048 35.4452 37.0424C35.4452 37.3838 35.3576 37.6754 35.163 37.8518C34.9381 38.0628 34.6217 38.1664 34.1642 38.1664Z" fill="#1A685B"/>
<path d="M39.503 36.3945C39.503 36.1797 39.4572 36.0224 39.3772 35.8959C39.236 35.6848 38.9653 35.543 38.5155 35.543H36.5786V38.5543H37.0476V37.2846H38.4125L39.2475 38.5543H39.7965L38.8929 37.204C39.1216 37.1772 39.3009 37.0467 39.3962 36.8779C39.4649 36.7628 39.503 36.5941 39.503 36.3945ZM39.0301 36.4329C39.0301 36.5173 39.0111 36.6209 38.9768 36.69C38.9158 36.8012 38.7747 36.8587 38.546 36.8625H37.0514C37.0514 36.8549 37.0514 35.9726 37.0514 35.9726H38.4583C38.7442 35.9726 38.8967 36.0417 38.9768 36.1721C39.0111 36.2334 39.0301 36.337 39.0301 36.4329Z" fill="#1A685B"/>
<path d="M44.0634 38.5543V35.543H43.4457L42.2142 38.0211L41.0055 35.543H40.3765V38.5543H40.8302V36.2373L41.9587 38.5543H42.4543L43.6097 36.2373V38.5543H44.0634Z" fill="#1A685B"/>
<path d="M45.4023 37.8101H47.2668L47.648 38.5543H48.1589L46.6414 35.543H46.081L44.5139 38.5543H45.0134L45.4023 37.8101ZM47.0684 37.3843H45.6082L46.2144 36.2296L46.3479 35.9496L46.4813 36.2296L47.0684 37.3843Z" fill="#1A685B"/>
<path d="M51.5938 38.5543V35.543H51.1398V37.883L49.1576 35.543H48.62V38.5543H49.0813V36.1989L51.0792 38.5543H51.5938Z" fill="#1A685B"/>
<path d="M55.707 37.4299H55.211C55.1956 37.5679 55.1422 37.7061 55.0466 37.8096C54.8412 38.0513 54.5136 38.1549 54.0104 38.1549C53.5872 38.1549 53.1333 38.0359 52.9156 37.7252C52.8016 37.5795 52.7286 37.3647 52.7286 37.0424C52.7286 36.7547 52.779 36.5399 52.8889 36.3941C53.0717 36.0987 53.4568 35.9453 53.9991 35.9453C54.5249 35.9453 54.8566 36.091 55.0323 36.2944C55.1309 36.4017 55.1884 36.5284 55.2069 36.6779H55.7029C55.6875 36.5092 55.6341 36.3096 55.5201 36.1409C55.2757 35.7764 54.8258 35.4888 54.0022 35.4888C53.2175 35.4888 52.7482 35.7419 52.4883 36.1217C52.3209 36.3403 52.2367 36.6472 52.2367 37.0386C52.2367 37.4759 52.3404 37.7982 52.5191 38.0245C52.779 38.3813 53.2781 38.596 54.033 38.596C54.8073 38.596 55.2685 38.3621 55.4975 37.99C55.6269 37.8096 55.6916 37.5948 55.707 37.4299Z" fill="#1A685B"/>
<path d="M59.1187 38.5543V38.1132H56.7925V37.2539H59.0273V36.8166H56.7925V35.9803H59.092V35.543H56.3273V38.5543H59.1187Z" fill="#1A685B"/>
<path d="M24.2499 41.5454L24.8201 43.3112H26.6654L25.1726 44.4025L25.7428 46.1681L24.2499 45.0769L22.7571 46.1681L23.3274 44.4025L21.8345 43.3112H23.6797L24.2499 41.5454Z" fill="#1A685B"/>
<path d="M30.8328 41.5459L31.4146 43.3116H33.2976L31.7743 44.4029L32.3561 46.1686L30.8328 45.0773L29.3095 46.1686L29.8913 44.4029L28.368 43.3116H30.251L30.8328 41.5459Z" fill="#1A685B"/>
<path d="M37.3636 41.5459L37.9455 43.3116H39.8283L38.305 44.4029L38.887 46.1686L37.3636 45.0773L35.8403 46.1686L36.4221 44.4029L34.8988 43.3116H36.7818L37.3636 41.5459Z" fill="#1A685B"/>
<path d="M43.8946 41.5459L44.4764 43.3116H46.3593L44.836 44.4029L45.4179 46.1686L43.8946 45.0773L42.3713 46.1686L42.9531 44.4029L41.4298 43.3116H43.3128L43.8946 41.5459Z" fill="#1A685B"/>
<path d="M50.4773 41.5459L51.0473 43.3116H52.8929L51.3996 44.4029L51.9696 46.1686L50.4773 45.0773L48.9843 46.1686L49.5547 44.4029L48.0618 43.3116H49.907L50.4773 41.5459Z" fill="#1A685B"/>
<path d="M27.4483 11.7554L27.8795 13.0904H29.2747L28.146 13.9156L28.5771 15.2505L27.4483 14.4255L26.3196 15.2505L26.7508 13.9156L25.6221 13.0904H27.0173L27.4483 11.7554Z" fill="#1A685B"/>
<path d="M32.4257 11.7534L32.8656 13.0885H34.2892L33.1375 13.9136L33.5774 15.2486L32.4257 14.4234L31.2738 15.2486L31.7138 13.9136L30.562 13.0885H31.9857L32.4257 11.7534Z" fill="#1A685B"/>
<path d="M37.3634 11.7534L37.8033 13.0885H39.2269L38.0752 13.9136L38.5151 15.2486L37.3634 14.4234L36.2116 15.2486L36.6516 13.9136L35.4998 13.0885H36.9234L37.3634 11.7534Z" fill="#1A685B"/>
<path d="M42.3018 11.7534L42.7416 13.0885H44.1653L43.0136 13.9136L43.4535 15.2486L42.3018 14.4234L41.1499 15.2486L41.5899 13.9136L40.4381 13.0885H41.8618L42.3018 11.7534Z" fill="#1A685B"/>
<path d="M47.2783 11.7534L47.7094 13.0885H49.1046L47.9759 13.9136L48.4071 15.2486L47.2783 14.4234L46.1496 15.2486L46.5807 13.9136L45.452 13.0885H46.8471L47.2783 11.7534Z" fill="#1A685B"/>
<path fill-rule="evenodd" clip-rule="evenodd" d="M7.57572 35.7847C5.67305 23.8075 11.226 11.9574 22.3426 6.86865L22.4452 7.09557C11.4404 12.1331 5.9334 23.8672 7.82036 35.7454C9.908 48.8866 20.4447 56.7678 33.3477 57.1478L33.3404 57.397C20.3368 57.014 9.68482 49.0615 7.57572 35.7847Z" fill="#1A685B"/>
<path d="M19.9323 9.92552C17.8779 9.97264 15.4735 11.1382 14.0548 12.8313C15.1926 13.8942 17.0231 13.5013 18.3405 13.2839C20.2207 12.9736 22.2201 12.3727 23.9943 11.5219C23.2648 9.95951 21.2997 9.89421 19.9323 9.92552Z" fill="#1A685B"/>
<path d="M18.3167 7.37552C17.0999 9.28264 15.6497 11.1781 14.0716 12.8472C12.7513 11.6002 13.5482 9.52495 14.0871 8.23442C15.0633 5.89599 17.4038 3.87944 19.8507 2.84766C20.5223 4.38495 19.0636 6.20496 18.3167 7.37552Z" fill="#1A685B"/>
<path d="M13.9875 15.2733C12.0639 15.9613 10.4109 17.8979 9.58093 19.8423C10.9641 20.4893 12.5366 19.5549 13.687 18.9327C15.2666 18.0784 16.8781 16.8995 18.146 15.5353C17.0004 14.3191 15.2608 14.818 13.9875 15.2733Z" fill="#1A685B"/>
<path d="M11.6558 13.3679C11.2347 15.5431 10.5287 17.7976 9.60153 19.8525C7.98314 19.0846 8.04476 16.885 8.11408 15.4852C8.2324 13.0961 9.56086 10.3716 11.4104 8.64014C12.5427 9.86154 11.924 11.9823 11.6558 13.3679Z" fill="#1A685B"/>
<path d="M10.2862 22.1781C8.68328 23.4503 7.71172 25.8081 7.48669 27.9135C9.003 28.0886 10.215 26.7002 11.1168 25.7477C12.3446 24.4508 13.5069 22.8241 14.245 21.1223C12.7996 20.3289 11.3302 21.3493 10.2862 22.1781Z" fill="#1A685B"/>
<path d="M7.50912 21.104C7.79494 23.3006 7.79555 25.6769 7.50963 27.9164C5.74622 27.6984 5.16133 25.5681 4.81584 24.2317C4.21934 21.9249 4.61927 18.9452 5.78124 16.7026C7.23336 17.5114 7.32651 19.7 7.50912 21.104Z" fill="#1A685B"/>
<path d="M9.02832 29.7146C7.75995 31.584 7.31391 34.5136 7.88432 36.8684C9.56043 36.4691 10.3913 34.5598 11.0584 33.2114C11.9451 31.4193 12.6945 29.3286 12.9628 27.2773C11.1448 26.8966 9.86381 28.4831 9.02832 29.7146Z" fill="#1A685B"/>
<path d="M5.69861 29.5254C6.68681 31.8274 7.45801 34.361 7.90928 36.8625C5.987 37.278 4.60349 35.2471 3.79974 33.9004C2.36878 31.5033 1.95191 28.1802 2.47611 25.3125C4.23551 25.6675 5.09646 28.1232 5.69861 29.5254Z" fill="#1A685B"/>
<path d="M9.91558 37.8479C9.23456 40.1156 9.70792 43.1986 11.0868 45.3305C12.6021 44.3379 12.8118 42.1532 13.0265 40.5868C13.3097 38.5197 13.443 36.2299 13.0913 34.0864C11.1531 34.3354 10.3705 36.3329 9.91558 37.8479Z" fill="#1A685B"/>
<path d="M6.54753 38.819C8.24787 40.782 9.81635 43.0202 11.1099 45.3162C9.35552 46.4181 7.29685 44.9127 6.04829 43.8473C3.8333 41.9574 2.39505 38.7453 2.05408 35.717C3.89739 35.4678 5.52183 37.6347 6.54753 38.819Z" fill="#1A685B"/>
<path d="M13.4891 45.5667C13.6353 48.2063 15.3433 50.9762 17.6176 52.5527C18.7159 51.0398 18.0275 48.7217 17.6528 47.1036C17.1484 44.9251 16.4504 42.6565 15.413 40.6436C13.604 41.6054 13.3929 43.8283 13.4891 45.5667Z" fill="#1A685B"/>
<path d="M10.4303 47.7964C12.8942 49.174 15.3511 50.7995 17.6354 52.5292C16.2674 54.3416 13.533 53.6189 11.838 53.0363C8.851 52.0097 6.18802 49.3034 4.79712 46.2967C6.56063 45.3828 8.97476 46.9827 10.4303 47.7964Z" fill="#1A685B"/>
<path d="M20.5065 52.0155C21.9854 54.7309 25.3553 56.5023 28.5289 56.9288C28.8704 54.9547 26.7475 53.0002 25.5906 51.7215C23.9436 49.9011 22.2273 48.012 20.3031 46.438C18.8615 48.1221 19.6236 50.3943 20.5065 52.0155Z" fill="#1A685B"/>
<path d="M18.3945 55.4568C21.7561 55.8084 25.1746 56.3147 28.5343 56.8984C28.2135 59.3891 24.285 59.7911 22.5016 59.9381C18.8449 60.2397 14.777 58.7608 11.9446 56.2711C13.3514 54.6055 16.6039 55.2696 18.3945 55.4568Z" fill="#1A685B"/>
<path d="M24.8693 4.77799C22.6124 5.42579 19.9707 6.65473 18.6656 8.92331C21.0345 8.66353 23.3627 7.81547 25.6395 7.16933C28.1898 6.44548 30.8752 5.90412 33.3443 4.90499C30.6402 3.81647 27.4525 4.03647 24.8693 4.77799Z" fill="#1A685B"/>
<path fill-rule="evenodd" clip-rule="evenodd" d="M68.5314 35.7454C70.4181 23.8672 64.9112 12.1333 53.9066 7.09557L54.0093 6.86865C65.1258 11.9575 70.679 23.8075 68.7759 35.7847C66.6674 49.0615 56.0151 57.014 43.0115 57.397L43.0043 57.1478C55.9072 56.7678 66.4435 48.8866 68.5314 35.7454Z" fill="#1A685B"/>
<path d="M56.4197 9.92552C58.4737 9.97264 60.878 11.1382 62.2974 12.8313C61.1594 13.8942 59.3282 13.5013 58.0116 13.2839C56.1311 12.9736 54.1315 12.3727 52.3578 11.5219C53.087 9.95951 55.0517 9.89421 56.4197 9.92552Z" fill="#1A685B"/>
<path d="M58.0353 7.37552C59.2523 9.28264 60.7025 11.1781 62.28 12.8472C63.6007 11.6002 62.8038 9.52495 62.2646 8.23442C61.2889 5.89599 58.9483 3.87944 56.5009 2.84766C55.8292 4.38495 57.2886 6.20496 58.0353 7.37552Z" fill="#1A685B"/>
<path d="M62.3652 15.2733C64.2888 15.9613 65.9413 17.8979 66.7712 19.8423C65.3878 20.4893 63.8154 19.5549 62.6651 18.9327C61.0855 18.0784 59.4741 16.8995 58.2068 15.5353C59.3519 14.3191 61.0917 14.818 62.3652 15.2733Z" fill="#1A685B"/>
<path d="M64.6966 13.3679C65.1176 15.5431 65.8232 17.7976 66.7506 19.8525C68.3692 19.0846 68.3076 16.885 68.2377 15.4852C68.1196 13.0961 66.7917 10.3716 64.942 8.64014C63.8092 9.86154 64.4285 11.9823 64.6966 13.3679Z" fill="#1A685B"/>
<path d="M66.0656 22.1781C67.6688 23.4503 68.6403 25.8081 68.8653 27.9135C67.3494 28.0886 66.1375 26.7002 65.2357 25.7477C64.0074 24.4508 62.8448 22.8241 62.1074 21.1223C63.5524 20.3289 65.0221 21.3493 66.0656 22.1781Z" fill="#1A685B"/>
<path d="M68.8437 21.104C68.5572 23.3004 68.5572 25.6769 68.8427 27.9164C70.6061 27.6984 71.1915 25.5681 71.5366 24.2317C72.1333 21.9249 71.7327 18.9452 70.5712 16.7026C69.1189 17.5114 69.0255 19.7 68.8437 21.104Z" fill="#1A685B"/>
<path d="M67.3237 29.7146C68.5921 31.584 69.0378 34.5136 68.4678 36.8684C66.7917 36.4691 65.9608 34.5599 65.2933 33.2114C64.4069 31.4193 63.6572 29.3286 63.3892 27.2773C65.207 26.8966 66.4887 28.4831 67.3237 29.7146Z" fill="#1A685B"/>
<path d="M70.6533 29.5254C69.6653 31.8274 68.894 34.361 68.4431 36.8625C70.3647 37.278 71.7481 35.2471 72.5522 33.9004C73.9829 31.5033 74.3999 28.1802 73.8761 25.3125C72.1168 25.6675 71.2551 28.1232 70.6533 29.5254Z" fill="#1A685B"/>
<path d="M66.4363 37.8479C67.1172 40.1156 66.6448 43.1986 65.2655 45.3305C63.7506 44.3379 63.5401 42.1532 63.3254 40.5868C63.043 38.5197 62.9095 36.2299 63.2607 34.0864C65.1987 34.3354 65.9813 36.3329 66.4363 37.8479Z" fill="#1A685B"/>
<path d="M69.804 38.819C68.1043 40.7821 66.536 43.0202 65.2419 45.3162C66.9961 46.4181 69.0553 44.9127 70.3042 43.8473C72.5184 41.9574 73.9573 38.7453 74.2983 35.717C72.4548 35.4678 70.83 37.6347 69.804 38.819Z" fill="#1A685B"/>
<path d="M62.8622 45.5667C62.7164 48.2063 61.0084 50.9762 58.7346 52.5527C57.6357 51.0398 58.3248 48.7218 58.6987 47.1036C59.2029 44.9251 59.9013 42.6565 60.9386 40.6436C62.7482 41.6054 62.9588 43.8283 62.8622 45.5667Z" fill="#1A685B"/>
<path d="M65.9218 47.7964C63.4579 49.174 61.0013 50.7995 58.7172 52.5292C60.0852 54.3416 62.8191 53.6189 64.5137 53.0363C67.5013 52.0097 70.1644 49.3034 71.555 46.2967C69.7916 45.3828 67.3771 46.9827 65.9218 47.7964Z" fill="#1A685B"/>
<path d="M55.8456 52.0155C54.3667 54.7309 50.997 56.5023 47.8231 56.9288C47.4815 54.9547 49.6044 53.0002 50.7619 51.7215C52.4082 49.9011 54.1243 48.012 56.049 46.438C57.4909 48.1221 56.7279 50.3943 55.8456 52.0155Z" fill="#1A685B"/>
<path d="M57.9571 55.4568C54.5957 55.8084 51.1777 56.3147 47.8175 56.8984C48.1383 59.3891 52.0671 59.7911 53.8501 59.9381C57.5073 60.2397 61.5754 58.7608 64.4069 56.2711C63.0009 54.6055 59.7483 55.2696 57.9571 55.4568Z" fill="#1A685B"/>
<path d="M51.4828 4.77799C53.7392 5.42579 56.3817 6.65473 57.6861 8.92331C55.3177 8.66353 52.9895 7.81547 50.7125 7.16933C48.1622 6.44548 45.4769 5.90412 43.0077 4.90499C45.712 3.81647 48.8995 4.03647 51.4828 4.77799Z" fill="#1A685B"/>
<path d="M39.6436 3.60403L38.4857 1.0332L37.3495 3.55619L34.707 1.90782L36.405 5.49793H40.6277L42.2644 1.90782L39.6436 3.60403Z" fill="#1A685B"/>
<path d="M40.6006 6.05615H36.3712V6.68411H40.6006V6.05615Z" fill="#1A685B"/>
<path d="M38.7881 54.6343L39.4697 56.7446H41.675L39.8909 58.0487L40.5723 60.159L38.7881 58.8548L37.004 60.159L37.6855 58.0487L35.9014 56.7446H38.1067L38.7881 54.6343Z" fill="#1A685B"/>
</svg>
