<svg width="147" height="62" viewBox="0 0 147 62" fill="none" xmlns="http://www.w3.org/2000/svg">
<path d="M73.7301 20.4545C74.3346 20.446 74.8486 20.333 74.8402 19.7116V19.6184C74.8486 18.9998 74.3346 18.8868 73.7301 18.8784C73.1229 18.8868 72.6088 18.9998 72.6173 19.6184V19.7116C72.6088 20.333 73.1229 20.446 73.7301 20.4545Z" fill="#1A685B"/>
<path d="M51.6307 19.2057C51.6307 19.0249 51.4867 18.8809 51.3059 18.8809H49.501V19.5277H51.3059C51.3963 19.5277 51.4725 19.4966 51.5347 19.4345C51.5996 19.3695 51.6307 19.2933 51.6307 19.2057Z" fill="#1A685B"/>
<path d="M61.7906 18.8726L62.3104 19.994H61.2681L61.7906 18.8726Z" fill="#1A685B"/>
<path d="M84.98 18.8726L85.4999 19.994H84.4575L84.98 18.8726Z" fill="#1A685B"/>
<path d="M48.0568 42.4857L47.2886 40.8281L46.5161 42.4857H48.0568Z" fill="#1A685B"/>
<path d="M66.1864 42.0095C66.1864 42.5732 65.8649 43.0367 65.2971 43.0367H62.9004V40.9824H65.2971C65.8649 40.9824 66.1864 41.4417 66.1864 42.0095Z" fill="#1A685B"/>
<path d="M72.2574 40.8281L73.0257 42.4857H71.4849L72.2574 40.8281Z" fill="#1A685B"/>
<path d="M81.5939 40.8403C81.8611 40.8403 82.074 41.0533 82.074 41.3205C82.074 41.4499 82.0281 41.5627 81.9321 41.6587C81.8402 41.7506 81.7275 41.7965 81.5939 41.7965H78.9258V40.8403H81.5939Z" fill="#1A685B"/>
<path d="M90.4208 42.0095C90.4208 42.5732 90.0988 43.0367 89.5308 43.0367H87.1338V40.9824H89.5308C90.0988 40.9824 90.4208 41.4417 90.4208 42.0095Z" fill="#1A685B"/>
<path d="M37.9122 31.5474L35.1276 25.1182H30.3501V35.8335H33.8308V30.0459L36.3424 35.8335H39.4547L41.9936 30.0459V35.8335H45.4607V25.1182H40.8333L37.9122 31.5474Z" fill="#1A685B"/>
<path d="M59.6665 35.8335V33.1717H51.9815V31.7794H59.3526V29.1723H51.9815V27.7936H59.571V25.1182H48.3779V35.8335H59.6665Z" fill="#1A685B"/>
<path d="M62.6029 33.9358C63.6676 35.3145 65.5649 35.997 67.8445 35.997C69.5564 35.997 70.8112 35.6493 71.6854 35.0979C71.8358 35.003 71.975 34.902 72.1033 34.7958L72.1989 35.8332H75.1336V29.4859H68.0083V31.7928H71.8167C71.7999 31.902 71.7417 32.0734 71.658 32.2367C71.6058 32.3387 71.5436 32.4375 71.4754 32.5162C71.0796 32.9803 70.0285 33.3898 68.6635 33.3898C67.2439 33.3898 66.3293 33.0213 65.8379 32.448C65.5103 32.0248 65.3192 31.4242 65.3192 30.5233C65.3192 29.5815 65.5103 28.9399 65.8789 28.5168C66.4112 27.9162 67.3121 27.6568 68.6362 27.6568C69.8238 27.6568 70.6428 27.9298 71.025 28.2711C71.2707 28.4758 71.4618 28.7625 71.5027 28.9536H75.0381C75.0331 28.8276 75.015 28.6736 74.9846 28.5097C74.9326 28.2296 74.8447 27.9201 74.7241 27.6705C73.8778 25.9505 71.9122 24.9268 68.568 24.9268C65.6605 24.9268 63.7085 25.814 62.6302 27.1518C61.9204 28.0663 61.5928 29.2129 61.5928 30.496C61.5928 31.9156 61.975 33.1305 62.6029 33.9358Z" fill="#1A685B"/>
<path d="M65.7632 30.5232C65.7632 29.6325 65.9453 29.1174 66.2125 28.8097C66.6144 28.3574 67.3477 28.1006 68.6363 28.1006C69.7821 28.1006 70.4677 28.3684 70.7294 28.6021L70.7351 28.6071L70.7409 28.612C70.8309 28.687 70.9132 28.7794 70.9754 28.8695C71.0369 28.9585 71.0615 29.0203 71.0676 29.0419H67.5645V32.2366H71.1304C71.0027 32.3809 70.7286 32.561 70.2931 32.7057C69.8596 32.8497 69.3033 32.9458 68.6636 32.9458C67.3148 32.9458 66.5562 32.5967 66.1823 32.1673C65.9379 31.8469 65.7632 31.3555 65.7632 30.5232Z" fill="#1A685B"/>
<path d="M84.4071 29.0664L83.3901 31.008H85.3679L84.4071 29.0664Z" fill="#1A685B"/>
<path fill-rule="evenodd" clip-rule="evenodd" d="M87.2428 33.8542L88.1848 35.8335H92.1298L86.7238 25.1182H82.3151L76.5957 35.8335H80.4587L81.4551 33.8542H87.2428ZM82.6563 31.4518L84.0077 28.872L84.4172 27.8892L84.7994 28.8583L86.0828 31.4518H82.6563Z" fill="#1A685B"/>
<path fill-rule="evenodd" clip-rule="evenodd" d="M115.726 54.387H115.72C115.644 54.387 115.568 54.3866 115.492 54.3858V54.387H31.9999C24.6323 54.387 18.0604 50.9801 13.7737 45.6559H26.0751V44.0967H12.6211C10.614 41.1327 9.26909 37.6838 8.79869 33.9623H26.0751V32.4032H8.65419C8.62669 31.9389 8.61279 31.471 8.61279 30.9999C8.61279 27.9133 9.21069 24.9665 10.2971 22.2687H26.0751V20.7096H10.9925C12.6453 17.3418 15.084 14.4296 18.0697 12.2123H101.795C102.839 11.4371 103.95 10.7468 105.117 10.1516C104.802 10.312 104.492 10.4792 104.186 10.6531H20.4604C23.8653 8.71789 27.8035 7.61279 31.9998 7.61279H115.492V7.61389C115.57 7.61312 115.648 7.61279 115.726 7.61279C128.642 7.61279 139.113 18.0835 139.113 30.9999C139.113 43.9162 128.642 54.387 115.726 54.387ZM124.422 41.9687C125.469 38.8141 126.094 35.0672 126.094 30.9999C126.094 27.2082 125.55 23.6949 124.629 20.6803C124.516 20.3122 124.398 19.9516 124.275 19.5988C124.069 19.0112 123.848 18.4454 123.614 17.9032C123.298 17.171 122.958 16.4818 122.597 15.8402C120.891 12.8129 118.945 11.1825 117.129 10.6336V17.9032H121.905C122.309 18.7653 122.678 19.704 123.004 20.7096H117.129V29.5966H124.509C124.526 30.0591 124.535 30.527 124.535 30.9999C124.535 31.4728 124.526 31.9407 124.509 32.4031H117.129V41.2902H123.003C122.678 42.2958 122.309 43.2345 121.905 44.0966H117.129V51.3663C118.945 50.8175 120.891 49.187 122.597 46.1596C122.958 45.518 123.299 44.8288 123.614 44.0966C123.905 43.4226 124.175 42.7121 124.422 41.9687ZM127.56 20.7096C128.309 23.4186 128.772 26.4224 128.877 29.5966H136.259C136.042 26.3746 135.083 23.3559 133.553 20.7096H127.56ZM131.602 17.9032H126.643C125.743 15.5448 124.607 13.4934 123.295 11.856C126.555 13.1459 129.406 15.244 131.602 17.9032ZM114.323 10.6333V17.9032H107.837C108.153 17.171 108.493 16.4818 108.855 15.8402C110.56 12.8124 112.507 11.1818 114.323 10.6333ZM108.156 11.8559C106.844 13.4933 105.709 15.5447 104.809 17.9032H99.8489C102.045 15.2439 104.897 13.1457 108.156 11.8559ZM103.891 20.7096H94.9109V22.2687H97.0839C96.0278 24.5188 95.3674 26.9912 95.192 29.5966H102.574C102.68 26.4224 103.142 23.4186 103.891 20.7096ZM114.323 20.7096H106.814C106.012 23.3418 105.499 26.3528 105.383 29.5966H114.323V20.7096ZM128.877 32.4031C128.772 35.5773 128.309 38.5811 127.56 41.2902H133.553C135.083 38.6439 136.042 35.6251 136.259 32.4031H128.877ZM106.814 41.2902C106.012 38.658 105.499 35.6469 105.383 32.4031H114.323V41.2902H106.814ZM103.891 41.2902C103.142 38.5811 102.68 35.5773 102.574 32.4031H95.192C95.409 35.6251 96.3676 38.6439 97.8983 41.2902H103.891ZM126.643 44.0966C125.743 46.455 124.607 48.5063 123.296 50.1437C126.555 48.8538 129.406 46.7557 131.602 44.0966H126.643ZM107.837 44.0966H114.323V51.3666C112.507 50.8181 110.56 49.1875 108.855 46.1596C108.493 45.518 108.153 44.8288 107.837 44.0966ZM104.809 44.0966L94.9109 44.0967V45.6558H101.277C103.229 47.5804 105.563 49.1179 108.156 50.1439C106.844 48.5065 105.709 46.4551 104.809 44.0966ZM73.7298 17.6749C72.3006 17.6777 71.1312 18.0901 71.1369 19.5278V19.8046C71.1312 21.2395 72.3006 21.6547 73.7298 21.6575C75.1562 21.6547 76.3256 21.2395 76.3199 19.8046V19.5278C76.3199 18.0929 75.159 17.6749 73.7298 17.6749ZM29.3278 17.7681V21.5643H30.8079V17.7681H29.3278ZM35.2961 19.7792L33.6296 17.7681H31.5931V21.5643H33.0732V19.2454L35.1125 21.5643H36.779V17.7681H35.2961V19.7792ZM40.5328 18.977V21.57H39.0528V18.977H37.2931V17.7738H42.2925V18.977H40.5328ZM42.7897 21.57H47.2327V20.5955H44.2697V20.1097H47.2327V19.2312H44.2697V18.7454H47.2327V17.7738H42.7897V21.57ZM48.0207 21.5671V17.7709H51.6785C52.4609 17.7625 53.1247 18.4206 53.1134 19.2058C53.1134 19.4911 53.0371 19.7509 52.8846 19.9826C52.7349 20.2113 52.5344 20.3865 52.2858 20.5023L53.1134 21.5671H51.5373L50.8227 20.6407H49.5008V21.5671H48.0207ZM57.2768 19.7792L55.6103 17.7681H53.5738V21.5643H55.0539V19.2454L57.0932 21.5643H58.7597V17.7681H57.2768V19.7792ZM60.5392 21.57H58.8727L60.9092 17.7738H62.6689L64.7054 21.57H63.0389L62.7395 20.9203H60.8386L60.5392 21.57ZM66.965 21.57V18.977H68.7247V17.7738H63.7253V18.977H65.485V21.57H66.965ZM69.2218 21.5643V17.7681H70.7019V21.5643H69.2218ZM78.7999 17.7681L80.4664 19.7792V17.7681H81.9493V21.5643H80.2828L78.2435 19.2454V21.5643H76.7634V17.7681H78.7999ZM82.0623 21.57H83.7287L84.0282 20.9203H85.9289L86.2289 21.57H87.8949L85.8589 17.7738H84.0988L82.0623 21.57ZM88.0109 21.5643V17.7681H89.4909V20.361H92.4539V21.5643H88.0109ZM33.1628 40.4979C32.4822 40.4979 31.6471 40.5982 31.6471 41.0449C31.6471 41.2913 32.3277 41.3247 33.2087 41.3664L33.2184 41.3669C34.7836 41.4462 36.9749 41.5572 36.9708 42.9614C36.9708 44.5648 35.1336 44.9448 33.1628 44.9448C31.1962 44.9406 29.5636 44.7026 29.3548 42.9614H31.6471C31.8976 43.3957 32.478 43.5084 33.1628 43.5084C33.8434 43.5084 34.6785 43.3957 34.6785 42.9614C34.6785 42.7151 33.9979 42.6775 33.1169 42.6358L33.1071 42.6353C31.5419 42.556 29.3506 42.445 29.3548 41.0449C29.3548 39.4416 31.192 39.0574 33.1628 39.0574C35.1294 39.0699 36.762 39.2912 36.9708 41.0449H34.6785C34.4279 40.6023 33.8476 40.4979 33.1628 40.4979ZM41.8268 40.9823V44.8153H39.6389V40.9823H37.0376V39.2036H44.4281V40.9823H41.8268ZM42.975 44.8153H45.4385L45.8811 43.855H48.6912L49.1338 44.8153H51.5973L48.5868 39.2036H45.9855L42.975 44.8153ZM54.779 39.1952L57.2425 42.1681V39.1952H59.4346V44.807H56.9711L53.9564 41.379V44.807H51.7685V39.1952H54.779ZM60.7122 39.2036V44.8153H65.7061C67.2468 44.8362 68.3909 43.5335 68.3783 42.0094C68.3909 40.4771 67.2468 39.1827 65.7061 39.2036H60.7122ZM70.4076 44.8153H67.9441L70.9546 39.2036H73.5559L76.5663 44.8153H74.1028L73.6602 43.855H70.8502L70.4076 44.8153ZM76.7375 39.1994V44.8112H78.9255V43.4416H80.8796L81.9359 44.8112H84.2658L83.0424 43.237C83.4099 43.0658 83.7063 42.807 83.9276 42.4687C84.1531 42.1264 84.2658 41.7422 84.2658 41.3205C84.2825 40.1597 83.3013 39.1869 82.1447 39.1994H76.7375ZM84.9464 44.8153V39.2036H89.9399C91.4809 39.1827 92.6249 40.4771 92.6129 42.0094C92.6249 43.5335 91.4809 44.8362 89.9399 44.8153H84.9464ZM45.9043 36.2771H41.5494V32.1625L39.7444 36.2771H36.0509L34.2744 32.1836V36.2771H29.9059V24.674H35.4188L37.9216 30.4526L40.5471 24.674H45.9043V36.2771ZM60.1105 36.2771H47.9341V24.674H60.015V28.2372H52.4255V28.7281H59.7966V32.223H52.4255V32.7275H60.1105V36.2771ZM75.5775 36.2771H71.7939L71.7304 35.5882C70.7819 36.1269 69.4979 36.4409 67.8444 36.4409C65.4922 36.4409 63.4338 35.7374 62.2521 34.2081C61.5491 33.306 61.1488 31.9873 61.1488 30.496C61.1488 29.1373 61.4964 27.8884 62.2794 26.8796L62.2819 26.8763L62.2845 26.8732C63.4739 25.3976 65.5757 24.4829 68.5679 24.4829C71.9878 24.4829 74.1675 25.5339 75.1223 27.4745L75.1231 27.476L75.1238 27.4775C75.3458 27.9373 75.4659 28.5448 75.4815 28.9358L75.4858 29.042H75.5775V36.2771ZM81.7287 34.2978L80.7323 36.2771H75.8557L82.0489 24.674H86.9979L92.8509 36.2771H87.9039L86.9629 34.2978H81.7287ZM29.2714 50.5671H92.8059V49.0079H29.2714V50.5671Z" fill="#1A685B"/>
<path fill-rule="evenodd" clip-rule="evenodd" d="M32 2H115.726C131.742 2 144.726 14.9837 144.726 31C144.726 47.0163 131.742 60 115.726 60H32C15.9837 60 3 47.0163 3 31C3 14.9837 15.9837 2 32 2ZM32 4.8065C17.5337 4.8065 5.8065 16.5337 5.8065 31C5.8065 45.4663 17.5337 57.1936 32 57.1936H115.726C130.192 57.1936 141.919 45.4663 141.919 31C141.919 16.5337 130.192 4.8065 115.726 4.8065H32Z" fill="#1A685B"/>
</svg>
