<svg width="122" height="62" viewBox="0 0 122 62" fill="none" xmlns="http://www.w3.org/2000/svg">
<path d="M9.51272 13.3279C8.76023 11.4028 9.0869 9.18927 9.78005 7.3276C10.5093 5.36863 11.7792 3.41504 13.6772 2.38477C13.7713 4.44913 13.1449 6.48869 12.4604 8.32782C11.8448 9.98203 11.0895 11.7444 9.84223 13.1124C9.65059 14.149 9.50371 15.1828 9.40043 16.2117C9.81381 15.1247 10.4841 14.1339 11.3204 13.3372C12.3972 12.3113 13.999 11.5198 15.5025 11.9879C15.0622 13.6609 14.0583 15.2647 12.8695 16.3897C11.9337 17.2753 10.6985 18.41 9.24349 18.4546C9.18355 19.9688 9.21743 21.4692 9.34121 22.9492C9.54647 21.8661 9.98627 20.8462 10.6217 20.0867C11.4947 19.0431 12.789 17.768 14.4421 17.9813C14.3518 19.6747 13.6808 21.4096 12.7464 22.7133C12.0039 23.7493 11.0236 25.0696 9.63223 25.4107C9.85503 26.865 10.1654 28.2952 10.5591 29.6946C10.5629 28.623 10.798 27.5713 11.2644 26.7278C11.9218 25.5382 12.9456 24.0547 14.6006 23.9387C14.8431 25.5999 14.5145 27.416 13.8514 28.8603C13.3215 30.0148 12.6149 31.4871 11.3271 32.0962C11.8679 33.6019 12.5079 35.0654 13.2416 36.4781C12.984 35.2605 12.9943 33.9775 13.2992 32.8231C13.7193 31.2316 14.7622 29.5598 16.4366 29.0747C17.0285 30.8317 16.9469 32.7925 16.603 34.5784C16.3201 36.0487 15.7641 37.7757 14.5178 38.7308C15.3326 40.0544 16.2339 41.3247 17.2169 42.5333C16.6888 41.348 16.4263 40.0516 16.5671 38.8646C16.7723 37.1355 17.255 35.2858 19.0095 34.3639C20.0049 36.0927 20.2355 38.0323 20.3201 39.9479C20.3885 41.4966 20.1668 43.4068 19.0983 44.6667C20.2737 45.8968 21.5419 47.0481 22.8964 48.1098C22.022 46.9805 21.4096 45.6554 21.2799 44.3449C21.0968 42.4934 21.1863 40.4552 22.8186 39.0964C24.2146 40.5641 25.0477 42.7257 25.456 44.6031C25.817 46.263 26.1939 48.2277 25.3343 49.8613C27.0582 50.994 28.8985 51.9919 30.8442 52.837C29.4751 51.8549 28.3543 50.5075 27.8204 49.1163C27.1207 47.2927 26.6879 45.1197 28.0509 43.2933C29.877 44.4707 31.2191 46.4795 32.2765 48.3116C33.1838 49.8837 34.1229 52.0534 33.657 53.9257C34.7342 54.2937 35.8393 54.6168 36.9709 54.8924L36.9036 55.172C35.7678 54.8953 34.6584 54.5711 33.5768 54.2021C32.819 56.4564 30.3364 57.2011 28.3288 57.53C25.4682 57.9984 22.062 57.0907 19.6199 55.2622C20.9088 53.4285 23.5387 53.2425 25.5217 53.1022L25.5475 53.1004C27.7199 52.9467 30.0696 53.152 32.2542 53.7234C29.7305 52.7563 27.369 51.5404 25.1915 50.1109L25.1594 50.162C23.9661 52.1096 21.5704 52.1856 19.69 52.0624C17.1383 51.8952 14.1923 50.3334 12.4872 48.1745C14.091 46.758 16.4598 47.1545 18.2953 47.4616L18.3042 47.4631C20.3527 47.8058 22.5912 48.5537 24.4702 49.7051C24.2913 49.5632 24.1161 49.4131 23.9459 49.2557C22.119 47.9445 20.4337 46.4779 18.9044 44.8787C18.8867 44.8966 18.8687 44.9144 18.8505 44.932C17.3636 46.4378 15.1979 46.0435 13.5078 45.5535C11.2461 44.8977 8.90047 42.9193 7.77641 40.6481C9.51828 39.6656 11.6008 40.4752 13.2207 41.1156C14.9985 41.8184 16.8796 42.9428 18.3259 44.3761C18.1768 44.1867 18.0346 43.9889 17.9001 43.7842C16.5558 42.2568 15.3464 40.6214 14.2832 38.896L14.2299 38.9296C12.5478 40.0223 10.6419 39.231 9.13132 38.4528C7.08326 37.3977 5.43744 35.0789 4.72629 32.7985C6.54314 32.2127 8.3382 33.3625 9.73362 34.273C11.2598 35.2689 12.8057 36.6891 13.8669 38.3179C13.789 38.1575 13.7164 37.9934 13.6494 37.8262C12.6299 36.0356 11.7637 34.1558 11.0625 32.2058L11.0263 32.2182L11.0234 32.2193C9.49388 32.8046 7.79062 31.8946 6.68018 30.8967C5.13683 29.5098 4.04901 27.3776 3.794 25.2945C5.38864 25.0865 6.89102 26.3285 7.91819 27.3877C9.10052 28.6068 10.1617 30.0477 10.8141 31.6482C10.7665 31.4743 10.7256 31.2978 10.6913 31.1194C10.0976 29.2869 9.64786 27.3971 9.35139 25.4651L9.3283 25.468L9.32048 25.4693C7.70344 25.741 6.20841 24.5035 5.31521 23.3025C4.06204 21.6172 3.41603 19.2847 3.57795 17.1706C5.1887 17.284 6.41522 18.8265 7.21059 20.0742C8.13115 21.5187 8.89454 23.1535 9.22892 24.8637C9.21873 24.7277 9.21269 24.5908 9.21056 24.4535C8.96502 22.4872 8.87749 20.4805 8.95756 18.4491L8.95294 18.4488C7.3089 18.3892 6.09387 16.8527 5.46658 15.4898C4.56899 13.5394 4.42449 11.0741 5.02359 8.99635C6.59052 9.43905 7.46406 11.2484 7.97966 12.6411C8.57415 14.2469 8.98906 15.9983 8.99238 17.7395C9.0779 16.2787 9.25012 14.8063 9.51272 13.3279Z" fill="#1A685B"/>
<path d="M41.8927 9.72363V16.6984C41.8927 19.7661 39.1326 21.242 34.9495 21.242C31.0394 21.242 28.2363 19.7806 28.2363 16.3366V9.72363H32.132V16.3366C32.132 17.5666 33.1813 18.3335 35.1076 18.3335C36.9477 18.3335 38.0402 17.5377 38.0402 16.3511V9.72363H41.8927Z" fill="#1A685B"/>
<path d="M54.8672 18.0586V21.0829H44.1002V9.72363H47.9959V18.0586H54.8672Z" fill="#1A685B"/>
<path d="M66.4447 12.5743V9.72363H52.9751V12.5743H57.7333V21.0829H61.6722V12.5743H66.4447Z" fill="#1A685B"/>
<path fill-rule="evenodd" clip-rule="evenodd" d="M80.263 10.8814C80.7806 11.4167 81.0258 12.1547 81.0258 13.182C81.0258 14.0648 80.8102 14.8173 80.4501 15.3237C80.0474 15.8736 79.4291 16.3366 78.6675 16.4524L82.0752 21.0829H77.791L74.9874 17.0746H71.4946V21.0829H67.6564V9.72363H76.6409C78.4235 9.72363 79.5879 10.1578 80.263 10.8814ZM77.1585 14.1372C77.2592 13.9635 77.2876 13.7319 77.2876 13.5439C77.2876 13.3268 77.2592 13.0952 77.1585 12.9506C76.9572 12.5743 76.5544 12.4731 75.9504 12.4731H71.509V14.5423H76.0226C76.6409 14.5423 77.0152 14.4266 77.1585 14.1372Z" fill="#1A685B"/>
<path fill-rule="evenodd" clip-rule="evenodd" d="M87.2608 18.9848H93.3561L94.3475 21.0829H98.5026L92.81 9.72363H88.1669L82.1439 21.0829H86.2114L87.2608 18.9848ZM92.1337 16.4379H88.5258L89.9496 13.7031L90.3807 12.6611L90.7834 13.6885L92.1337 16.4379Z" fill="#1A685B"/>
<path fill-rule="evenodd" clip-rule="evenodd" d="M79.852 23.2222C77.4404 23.2222 76.1718 24.3727 76.1718 26.0634C76.1718 27.9717 77.5032 28.9398 79.852 28.9398C82.4376 28.9398 83.525 27.8173 83.525 26.0634C83.525 24.2815 82.2979 23.2222 79.852 23.2222ZM79.852 27.5297C78.4792 27.5297 78.0812 26.9615 78.0812 26.0845C78.0812 25.2217 78.5135 24.6534 79.8448 24.6534C81.3017 24.6534 81.6287 25.2918 81.6287 26.0845C81.6287 26.9264 81.2319 27.5297 79.852 27.5297Z" fill="#1A685B"/>
<path d="M72.5975 28.8558V25.5936H68.9595V26.7792H70.9039C70.89 26.8705 70.8203 27.0458 70.7297 27.151C70.5276 27.3896 69.9909 27.6 69.294 27.6C68.5692 27.6 68.1023 27.4106 67.8514 27.1159C67.6842 26.8985 67.5866 26.5898 67.5866 26.1268C67.5866 25.6427 67.6842 25.3131 67.8723 25.0956C68.1441 24.7869 68.604 24.6536 69.2801 24.6536C69.8864 24.6536 70.3046 24.7938 70.4998 24.9692C70.6252 25.0745 70.7227 25.2218 70.7436 25.32H72.5487C72.5418 25.1446 72.486 24.864 72.3884 24.6606C71.9563 23.7767 70.9527 23.2505 69.2453 23.2505C67.7608 23.2505 66.7642 23.7064 66.2137 24.394C65.8512 24.864 65.684 25.4533 65.684 26.1127C65.684 26.8424 65.879 27.4667 66.1997 27.8807C66.7432 28.5893 67.712 28.9399 68.8759 28.9399C69.9004 28.9399 70.6042 28.6944 71.0503 28.3227L71.0991 28.8558H72.5975Z" fill="#1A685B"/>
<path d="M53.6127 25.5236C55.0274 25.6779 55.6338 26.1831 55.6338 27.1442C55.6338 28.3087 54.5047 28.94 52.2815 28.94C50.2116 28.94 49.3196 28.3508 48.978 27.5791C48.9014 27.3967 48.8665 27.1722 48.8456 27.0319H50.8528C50.8668 27.116 50.9156 27.2423 50.9852 27.3265C51.1524 27.53 51.6194 27.6492 52.4139 27.6492C53.4385 27.6492 53.6823 27.5019 53.6823 27.2284C53.6823 26.9336 53.4315 26.8705 52.5045 26.7723C52.1352 26.7372 51.5497 26.6811 51.3058 26.6601C49.5357 26.4987 48.8805 25.9445 48.8805 24.9974C48.8805 24.0152 50.0374 23.2646 52.1491 23.2646C54.0238 23.2646 54.895 23.8259 55.2575 24.5274C55.3689 24.7379 55.4386 24.9763 55.4595 25.1447H53.4523C53.4453 25.0675 53.4175 24.9904 53.3409 24.8921C53.1875 24.6887 52.7972 24.5554 52.1003 24.5554C51.1176 24.5554 50.8598 24.6747 50.8598 24.9272C50.8598 25.2079 51.1874 25.2711 52.2815 25.3903C52.7066 25.4253 53.3827 25.4955 53.6127 25.5236Z" fill="#1A685B"/>
<path fill-rule="evenodd" clip-rule="evenodd" d="M33.6041 23.8186C33.9734 24.1133 34.1825 24.6114 34.1825 25.3339C34.1825 25.9233 34.0362 26.3652 33.7574 26.6739C33.3811 27.1088 32.7608 27.3053 31.9524 27.3123C31.7014 27.3194 29.5549 27.3123 29.5549 27.3123V28.8557H27.6801V23.3486H31.9244C32.6771 23.3486 33.2486 23.5029 33.6041 23.8186ZM32.2172 25.7619C32.2729 25.6637 32.3008 25.5374 32.3008 25.362C32.3008 25.1797 32.2659 25.0253 32.2032 24.9411C32.0848 24.7657 31.8618 24.6815 31.4993 24.6815H29.5409V26.0285H31.4853C31.8756 26.0285 32.1056 25.9373 32.2172 25.7619Z" fill="#1A685B"/>
<path fill-rule="evenodd" clip-rule="evenodd" d="M41.0405 23.9099C41.2915 24.1694 41.41 24.5272 41.41 25.0253C41.41 25.4532 41.3054 25.818 41.1312 26.0635C40.9361 26.3301 40.6364 26.5546 40.267 26.6108L41.9187 28.8557H39.8419L38.4828 26.9124H36.7893V28.8557H34.9285V23.3486H39.2843C40.1485 23.3486 40.713 23.5591 41.0405 23.9099ZM39.5352 25.4883C39.584 25.4042 39.5979 25.2919 39.5979 25.2006C39.5979 25.0955 39.584 24.9832 39.5352 24.9131C39.4376 24.7306 39.2425 24.6815 38.9498 24.6815H36.7963V25.6847H38.9847C39.2843 25.6847 39.4656 25.6286 39.5352 25.4883Z" fill="#1A685B"/>
<path d="M48.2807 28.8557V27.4877H44.357V26.7721H48.1204V25.4322H44.357V24.7236H48.2319V23.3486H42.5171V28.8557H48.2807Z" fill="#1A685B"/>
<path d="M62.4157 24.7306V23.3486H55.8855V24.7306H58.1922V28.8557H60.1018V24.7306H62.4157Z" fill="#1A685B"/>
<path d="M64.9266 23.3486V28.8557H63.01V23.3486H64.9266Z" fill="#1A685B"/>
<path d="M75.415 23.3486V28.8557H73.498V23.3486H75.415Z" fill="#1A685B"/>
<path d="M90.9196 23.3486V26.73C90.9196 28.2173 89.5812 28.9329 87.5534 28.9329C85.6582 28.9329 84.2985 28.2243 84.2985 26.5546V23.3486H86.1877V26.5546C86.1877 27.1509 86.6958 27.5228 87.6304 27.5228C88.5223 27.5228 89.0517 27.137 89.0517 26.5617V23.3486H90.9196Z" fill="#1A685B"/>
<path d="M98.4433 27.1442C98.4433 26.1831 97.8369 25.6779 96.4226 25.5236C96.1917 25.4955 95.5165 25.4253 95.0913 25.3903C93.9968 25.2711 93.6687 25.2079 93.6687 24.9272C93.6687 24.6747 93.927 24.5554 94.9101 24.5554C95.6065 24.5554 95.9974 24.6887 96.1502 24.8921C96.2272 24.9904 96.2544 25.0675 96.2615 25.1447H98.2692C98.2479 24.9763 98.178 24.7379 98.0667 24.5274C97.7042 23.8259 96.8336 23.2646 94.9586 23.2646C92.8467 23.2646 91.6895 24.0152 91.6895 24.9974C91.6895 25.9445 92.3457 26.4987 94.1153 26.6601L94.229 26.6702L94.4185 26.6876L95.314 26.7723C96.2414 26.8705 96.4913 26.9336 96.4913 27.2284C96.4913 27.5019 96.2485 27.6492 95.2239 27.6492C94.4292 27.6492 93.9625 27.53 93.7943 27.3265C93.7256 27.2423 93.6759 27.116 93.6628 27.0319H91.6552C91.6765 27.1722 91.7108 27.3967 91.7878 27.5791C92.1289 28.3508 93.0208 28.94 95.0913 28.94C97.3145 28.94 98.4433 28.3087 98.4433 27.1442Z" fill="#1A685B"/>
<path fill-rule="evenodd" clip-rule="evenodd" d="M49.708 30.9644C48.1409 30.9644 47.3165 31.7122 47.3165 32.811C47.3165 34.0511 48.1816 34.6803 49.708 34.6803C51.3885 34.6803 52.0951 33.9508 52.0951 32.811C52.0951 31.6529 51.2979 30.9644 49.708 30.9644ZM49.708 33.7639C48.8158 33.7639 48.5576 33.3945 48.5576 32.8246C48.5576 32.2639 48.8384 31.8945 49.7035 31.8945C50.6501 31.8945 50.8631 32.3094 50.8631 32.8246C50.8631 33.3717 50.6049 33.7639 49.708 33.7639Z" fill="#1A685B"/>
<path d="M40.9926 33.5131C40.9926 32.8884 40.5985 32.5601 39.679 32.4598C39.5295 32.4415 39.0902 32.396 38.8139 32.3732C38.1027 32.2956 37.8899 32.2546 37.8899 32.0723C37.8899 31.9081 38.0575 31.8306 38.6961 31.8306C39.1491 31.8306 39.4027 31.9172 39.5024 32.0494C39.5522 32.1133 39.5703 32.1634 39.5749 32.2136H40.8794C40.8657 32.1041 40.8205 31.9491 40.748 31.8124C40.5124 31.3564 39.9462 30.9917 38.7278 30.9917C37.3555 30.9917 36.6036 31.4795 36.6036 32.1178C36.6036 32.7334 37.0292 33.0936 38.1797 33.1984C38.3383 33.2121 38.7188 33.2486 38.9589 33.2714C39.5613 33.3352 39.7243 33.3763 39.7243 33.5678C39.7243 33.7456 39.5658 33.8413 38.9 33.8413C38.3836 33.8413 38.0801 33.7638 37.9714 33.6316C37.9261 33.5769 37.8944 33.4948 37.8854 33.4401H36.5808C36.5944 33.5313 36.6171 33.6771 36.6669 33.7958C36.8889 34.2973 37.4687 34.6802 38.8139 34.6802C40.2588 34.6802 40.9926 34.2699 40.9926 33.5131Z" fill="#1A685B"/>
<path fill-rule="evenodd" clip-rule="evenodd" d="M31.9487 33.6134C31.9487 33.8596 31.8807 34.1013 31.7449 34.2608C31.5365 34.5162 31.1469 34.6256 30.6443 34.6256H27.4872V31.0464H30.5581C31.0473 31.0464 31.3599 31.165 31.532 31.3428C31.686 31.4978 31.754 31.703 31.754 31.9355C31.754 32.1681 31.6996 32.3596 31.5819 32.5009C31.4867 32.6195 31.3237 32.7106 31.1516 32.7335C31.4052 32.7653 31.6453 32.893 31.7811 33.0708C31.8943 33.203 31.9487 33.4037 31.9487 33.6134ZM30.4223 32.3596C30.4675 32.3094 30.4948 32.2364 30.4948 32.1499C30.4948 32.0632 30.4675 31.9902 30.4087 31.9401C30.3453 31.8808 30.2274 31.858 30.0553 31.858H28.6739V32.4416H30.0871C30.2411 32.4416 30.3589 32.4189 30.4223 32.3596ZM30.2184 33.8141C30.4313 33.8141 30.5581 33.7867 30.6306 33.7183C30.6759 33.6727 30.694 33.6044 30.694 33.5177C30.694 33.4265 30.6714 33.3582 30.617 33.3034C30.5491 33.2442 30.4313 33.2167 30.2321 33.2167H28.6739V33.8141H30.2184Z" fill="#1A685B"/>
<path d="M36.2138 33.7366V34.6256H32.4679V31.0464H36.182V31.9401H33.6636V32.4006H36.1095V33.2715H33.6636V33.7366H36.2138Z" fill="#1A685B"/>
<path d="M45.4002 31.0464V31.9447H43.8965V34.6256H42.6555V31.9447H41.1562V31.0464H45.4002Z" fill="#1A685B"/>
<path d="M56.2399 31.0464V31.9537H53.8257V32.4599H56.1266V33.3582H53.8257V34.6256H52.6072V31.0464H56.2399Z" fill="#1A685B"/>
<path d="M62.3769 31.9447V31.0464H58.1329V31.9447H59.6322V34.6256H60.8733V31.9447H62.3769Z" fill="#1A685B"/>
<path d="M67.0075 31.0464V34.6256H65.7935V33.3262H63.9726V34.6256H62.7588V31.0464H63.9726V32.3504H65.7935V31.0464H67.0075Z" fill="#1A685B"/>
<path d="M71.4721 34.6256V33.7366H68.9219V33.2715H71.3678V32.4006H68.9219V31.9401H71.4403V31.0464H67.7262V34.6256H71.4721Z" fill="#1A685B"/>
<path d="M78.9814 31.0464H80.154L78.8546 34.6256H77.5233C77.5233 34.6256 76.8114 32.4873 76.8067 32.4279C76.8031 32.4873 76.0865 34.6256 76.0865 34.6256H74.7599L73.4282 31.0464H74.7457C74.7457 31.0464 75.5168 33.2988 75.5168 33.3535C75.5168 33.2988 76.2275 31.0464 76.2275 31.0464H77.5008C77.5008 31.0464 78.2162 33.2988 78.2162 33.3535C78.2162 33.2988 78.9814 31.0464 78.9814 31.0464Z" fill="#1A685B"/>
<path fill-rule="evenodd" clip-rule="evenodd" d="M82.4803 30.9644C80.9133 30.9644 80.0889 31.7122 80.0889 32.811C80.0889 34.0511 80.9535 34.6803 82.4803 34.6803C84.1611 34.6803 84.867 33.9508 84.867 32.811C84.867 31.6529 84.0699 30.9644 82.4803 30.9644ZM82.4803 33.7639C81.5884 33.7639 81.3302 33.3945 81.3302 32.8246C81.3302 32.2639 81.6109 31.8945 82.4756 31.8945C83.4231 31.8945 83.6352 32.3094 83.6352 32.8246C83.6352 33.3717 83.377 33.7639 82.4803 33.7639Z" fill="#1A685B"/>
<path fill-rule="evenodd" clip-rule="evenodd" d="M89.3526 31.4112C89.5148 31.5799 89.5918 31.8124 89.5918 32.1362C89.5918 32.4143 89.5243 32.6514 89.4106 32.811C89.2839 32.9842 89.0896 33.1302 88.8492 33.1665L89.9223 34.6256H88.5732L87.6896 33.3627H86.5892V34.6256H85.3799V31.0464H88.2108C88.7722 31.0464 89.1394 31.1833 89.3526 31.4112ZM88.3742 32.4371C88.405 32.3824 88.4145 32.3094 88.4145 32.2501C88.4145 32.1817 88.405 32.1089 88.3742 32.0632C88.3103 31.9447 88.1835 31.9127 87.9928 31.9127H86.594V32.5648H88.0153C88.2108 32.5648 88.328 32.5283 88.3742 32.4371Z" fill="#1A685B"/>
<path d="M93.7043 34.6256V33.6727H91.5391V31.0464H90.312V34.6256H93.7043Z" fill="#1A685B"/>
<path fill-rule="evenodd" clip-rule="evenodd" d="M98.5073 32.7699C98.5073 33.3262 98.4528 33.6271 98.2905 33.9098C98.0453 34.3611 97.5609 34.6256 96.7045 34.6256H94.1863V31.0464H96.6773C97.5289 31.0464 98.0323 31.2881 98.281 31.703C98.4575 31.9812 98.5073 32.2774 98.5073 32.7699ZM96.4735 33.7457C96.8585 33.7457 97.0764 33.6544 97.2079 33.4539C97.2896 33.3307 97.3121 33.0435 97.3121 32.7928C97.3074 32.5648 97.2802 32.3231 97.2079 32.2137C97.067 31.9994 96.8549 31.9219 96.483 31.9219H95.4004V33.7457H96.4735Z" fill="#1A685B"/>
<path d="M49.9192 52.0327H48.0423C48.0423 52.0327 46.8176 55.6365 46.8176 55.724C46.8176 55.6365 45.6726 52.0327 45.6726 52.0327H43.6361C43.6361 52.0327 42.4983 55.6365 42.4983 55.724C42.4983 55.6365 41.2663 52.0327 41.2663 52.0327H39.1574L41.288 57.7593H43.4114C43.4114 57.7593 44.5564 54.3379 44.5637 54.2431C44.571 54.3379 45.7087 57.7593 45.7087 57.7593H47.8393L49.9192 52.0327Z" fill="#1A685B"/>
<path d="M52.4876 57.7593V52.0327H50.4946V57.7593H52.4876Z" fill="#1A685B"/>
<path d="M60.2395 52.0327V57.7593H58.2972L55.4781 54.5714V57.7593H53.6085V52.0327H55.652L58.3841 55.1477V52.0327H60.2395Z" fill="#1A685B"/>
<path d="M68.003 57.7593V52.0327H66.1478V55.1477L63.4157 52.0327H61.372V57.7593H63.2417V54.5714L66.0608 57.7593H68.003Z" fill="#1A685B"/>
<path d="M75.1295 56.3367V57.7593H69.1356V52.0327H75.0786V53.4625H71.0489V54.1994H74.9625V55.5927H71.0489V56.3367H75.1295Z" fill="#1A685B"/>
<path fill-rule="evenodd" clip-rule="evenodd" d="M82.7894 53.7762C82.7894 53.2583 82.6662 52.8863 82.4056 52.6164C82.0645 52.2516 81.4782 52.0327 80.5792 52.0327H76.0498V57.7593H77.9852V55.7385H79.7465L81.1596 57.7593H83.3189L81.6014 55.4249C81.9852 55.3665 82.2967 55.1331 82.5004 54.8559C82.6804 54.6006 82.7894 54.2212 82.7894 53.7762ZM80.9049 53.9586C80.9049 54.0534 80.8907 54.1702 80.8398 54.2577C80.7675 54.4036 80.5792 54.4619 80.2677 54.4619H77.9923V53.4188H80.231C80.5354 53.4188 80.7391 53.4698 80.8398 53.6595C80.8907 53.7325 80.9049 53.8492 80.9049 53.9586Z" fill="#1A685B"/>
<path d="M44.1326 41.9296L43.3468 39.4946L42.5607 41.9296H40.0173L42.075 43.4344L41.2891 45.8693L43.3468 44.3645L45.4043 45.8693L44.6184 43.4344L46.676 41.9296H44.1326Z" fill="#1A685B"/>
<path d="M52.4203 39.4932L53.2223 41.9281H55.8176L53.718 43.433L54.52 45.8678L52.4203 44.363L50.3207 45.8678L51.1227 43.433L49.023 41.9281H51.6183L52.4203 39.4932Z" fill="#1A685B"/>
<path d="M62.2236 41.9281L61.4217 39.4932L60.6197 41.9281H58.0243L60.124 43.433L59.322 45.8678L61.4217 44.363L63.5213 45.8678L62.7193 43.433L64.819 41.9281H62.2236Z" fill="#1A685B"/>
<path d="M70.4234 39.4932L71.2254 41.9281H73.8207L71.7211 43.433L72.5231 45.8678L70.4234 44.363L68.3238 45.8678L69.1258 43.433L67.0261 41.9281H69.6215L70.4234 39.4932Z" fill="#1A685B"/>
<path d="M80.2831 41.9281L79.4966 39.4932L78.7102 41.9281H76.1671L78.2245 43.433L77.4392 45.8678L79.4966 44.363L81.5541 45.8678L80.7688 43.433L82.8262 41.9281H80.2831Z" fill="#1A685B"/>
<path d="M113.28 13.3804C114.032 11.4554 113.705 9.24163 113.012 7.37996C112.283 5.42112 111.013 3.46728 109.115 2.43701C109.021 4.50149 109.647 6.54093 110.332 8.38007C110.948 10.0342 111.702 11.7964 112.949 13.1643C113.141 14.2007 113.288 15.2342 113.391 16.2629C112.978 15.1763 112.309 14.186 111.472 13.3896C110.396 12.3636 108.793 11.5721 107.29 12.0402C107.731 13.7131 108.734 15.317 109.923 16.4421C110.859 17.3276 112.094 18.4622 113.549 18.5069C113.609 20.0213 113.575 21.5218 113.451 23.0019C113.246 21.9188 112.806 20.8989 112.17 20.1394C111.297 19.0957 110.003 17.8208 108.35 18.0341C108.44 19.7274 109.112 21.4623 110.046 22.766C110.788 23.802 111.769 25.1225 113.16 25.4636C112.938 26.9176 112.627 28.3475 112.233 29.7468C112.229 28.6754 111.995 27.6237 111.528 26.7801C110.871 25.5907 109.846 24.1071 108.191 23.9911C107.949 25.6523 108.278 27.4683 108.941 28.9127C109.471 30.0672 110.178 31.5395 111.465 32.1486C110.924 33.6545 110.284 35.1184 109.55 36.5312C109.808 35.3133 109.798 34.0301 109.493 32.8753C109.073 31.2838 108.03 29.612 106.356 29.1269C105.763 30.8842 105.845 32.8448 106.19 34.6306C106.473 36.1011 107.028 37.828 108.274 38.7832C107.459 40.1075 106.558 41.3784 105.574 42.5876C106.103 41.4017 106.365 40.1046 106.224 38.9172C106.019 37.1879 105.537 35.3383 103.783 34.4166C102.787 36.1455 102.556 38.085 102.472 40.0007C102.403 41.5495 102.624 43.4598 103.694 44.7198C102.518 45.9496 101.251 47.1005 99.8967 48.1619C100.771 47.0327 101.383 45.7076 101.512 44.3973C101.696 42.5458 101.607 40.5076 99.9737 39.1488C98.5784 40.6165 97.7445 42.778 97.337 44.6554C96.9758 46.3152 96.5991 48.2801 97.4578 49.9136C95.7344 51.0466 93.8938 52.0446 91.9477 52.89C93.317 51.9078 94.4375 50.5601 94.9717 49.1687C95.6717 47.3452 96.104 45.1721 94.7419 43.3457C92.9154 44.5231 91.5734 46.5318 90.5157 48.364C89.6084 49.9362 88.6691 52.106 89.1358 53.9783C88.0579 54.3463 86.9528 54.6694 85.8217 54.945L85.8892 55.2246C87.0239 54.9479 88.1337 54.6237 89.2151 54.2547C89.9732 56.5089 92.4558 57.2538 94.4635 57.5826C97.324 58.051 100.731 57.1434 103.173 55.3148C101.883 53.4811 99.2535 53.2951 97.2707 53.1548L97.2446 53.153C95.0723 52.9993 92.7224 53.2046 90.5382 53.7761C93.0611 52.809 95.4229 51.5929 97.6012 50.1633L97.6308 50.211C98.8235 52.1618 101.221 52.2382 103.102 52.1149C105.654 51.9477 108.6 50.3859 110.305 48.227C108.701 46.8108 106.333 47.207 104.497 47.514L104.488 47.5157C102.44 47.8583 100.202 48.6058 98.3237 49.7568C98.5025 49.6151 98.6767 49.4652 98.8472 49.3079C100.674 47.997 102.358 46.5306 103.887 44.9317C103.908 44.953 103.93 44.974 103.951 44.9949C105.439 46.489 107.598 46.0948 109.285 45.6058C111.547 44.9501 113.892 42.9717 115.016 40.7004C113.274 39.718 111.192 40.5274 109.573 41.1679C107.792 41.8714 105.91 42.9971 104.463 44.4322C104.612 44.2427 104.755 44.0445 104.89 43.8394C106.235 42.3112 107.445 40.6748 108.509 38.9483L108.555 38.9771L108.567 38.9846C110.248 40.0734 112.152 39.2828 113.661 38.5052C115.709 37.4501 117.356 35.1313 118.066 32.8509C116.249 32.2651 114.455 33.4148 113.06 34.3254C111.532 35.3218 109.985 36.743 108.923 38.373C109.002 38.2122 109.075 38.0477 109.143 37.8801C110.162 36.0889 111.028 34.2087 111.729 32.2582L111.766 32.2706L111.772 32.273C113.301 32.8556 115.003 31.9463 116.113 30.949C117.655 29.5621 118.744 27.4299 118.999 25.3468C117.404 25.1389 115.901 26.3808 114.874 27.4399C113.692 28.6599 112.63 30.1018 111.977 31.7035C112.026 31.5287 112.067 31.3512 112.101 31.1717C112.695 29.3394 113.145 27.4497 113.441 25.5179L113.486 25.5239C115.097 25.7865 116.587 24.5525 117.478 23.3549C118.731 21.6695 119.376 19.337 119.214 17.2228C117.604 17.3363 116.377 18.8787 115.583 20.1266C114.661 21.5718 113.897 23.2075 113.563 24.9188C113.574 24.7819 113.58 24.6443 113.582 24.5063C113.827 22.5398 113.915 20.533 113.834 18.5016C115.48 18.4435 116.698 16.9059 117.326 15.5424C118.223 13.5921 118.367 11.1267 117.769 9.04907C116.202 9.49178 115.328 11.3009 114.813 12.6936C114.218 14.2994 113.803 16.051 113.8 17.7923C113.715 16.3315 113.542 14.859 113.28 13.3804Z" fill="#1A685B"/>
</svg>
