<svg width="121" height="62" viewBox="0 0 121 62" fill="none" xmlns="http://www.w3.org/2000/svg">
<path d="M3.12805 35.8828H6.55588V52.7695H3.12805V35.8828Z" fill="#1A685B"/>
<path d="M8.54398 46.9835C8.54171 45.7706 8.89763 44.5842 9.5667 43.5746C10.2358 42.565 11.1879 41.7774 12.3026 41.3117C13.4173 40.846 14.6445 40.723 15.8288 40.9582C17.0132 41.1934 18.1014 41.7764 18.9558 42.6333C19.8103 43.4901 20.3926 44.5824 20.6289 45.7718C20.8653 46.9613 20.7452 48.1944 20.2837 49.3153C19.8222 50.4361 19.0402 51.3941 18.0365 52.0682C17.0329 52.7425 15.8528 53.1022 14.6456 53.1022C13.8426 53.1114 13.0461 52.9596 12.3024 52.6554C11.5588 52.3514 10.883 51.9012 10.3147 51.3313C9.74645 50.7615 9.29712 50.0834 8.99306 49.3367C8.68899 48.5902 8.53632 47.7901 8.54398 46.9835ZM17.2963 46.9835C17.2829 46.4599 17.116 45.9519 16.8167 45.5231C16.5173 45.0942 16.0988 44.7637 15.6133 44.5726C15.1279 44.3814 14.5972 44.3385 14.0876 44.4489C13.578 44.5593 13.1121 44.8182 12.7482 45.1933C12.3843 45.5683 12.1386 46.0429 12.0417 46.5576C11.9448 47.0722 12.0012 47.6042 12.2037 48.0869C12.4062 48.5695 12.7459 48.9815 13.1801 49.2712C13.6145 49.5609 14.1242 49.7155 14.6456 49.7156C15.0021 49.7257 15.357 49.6614 15.6877 49.5267C16.0184 49.392 16.3178 49.19 16.5669 48.9332C16.8159 48.6765 17.0094 48.3707 17.1349 48.0352C17.2605 47.6995 17.3154 47.3415 17.2963 46.9835Z" fill="#1A685B"/>
<path d="M34.5269 41.1978V52.1954C34.5269 56.087 31.499 57.7287 28.4369 57.7287C27.3601 57.8092 26.282 57.5904 25.3206 57.0963C24.3593 56.6022 23.5518 55.8519 22.9867 54.9276L25.9346 53.2172C26.1685 53.6908 26.5386 54.0831 26.997 54.343C27.4553 54.6029 27.9808 54.7187 28.5055 54.675C28.8506 54.7329 29.2044 54.7103 29.5395 54.6089C29.8747 54.5076 30.1822 54.3304 30.4383 54.0908C30.6944 53.8511 30.8923 53.5556 31.0168 53.227C31.1413 52.8984 31.189 52.5455 31.1562 52.1954V51.1278C30.7533 51.626 30.239 52.0217 29.6554 52.2829C29.0719 52.5442 28.4352 52.6637 27.797 52.6317C26.2454 52.6317 24.7575 52.0124 23.6603 50.9102C22.5632 49.8079 21.9468 48.3128 21.9468 46.754C21.9468 45.1951 22.5632 43.7002 23.6603 42.5979C24.7575 41.4956 26.2454 40.8764 27.797 40.8764C28.4348 40.8471 29.0705 40.9678 29.6538 41.2288C30.237 41.4899 30.7515 41.8842 31.1562 42.3802V41.2322L34.5269 41.1978ZM31.1562 46.754C31.1791 46.1957 31.0351 45.6433 30.743 45.1677C30.4508 44.6923 30.0238 44.3154 29.5168 44.0858C29.0098 43.856 28.4459 43.7839 27.8978 43.8788C27.3497 43.9735 26.8423 44.2308 26.441 44.6175C26.0395 45.0044 25.7624 45.5029 25.6453 46.0491C25.528 46.5953 25.5762 47.1644 25.7834 47.6829C25.9907 48.2015 26.3475 48.6458 26.8082 48.959C27.2688 49.2723 27.8121 49.4398 28.3682 49.4403C28.7314 49.466 29.0957 49.4152 29.4379 49.2909C29.7802 49.1665 30.0927 48.9716 30.3554 48.7185C30.618 48.4654 30.825 48.1598 30.963 47.8215C31.1009 47.4831 31.1667 47.1195 31.1562 46.754Z" fill="#1A685B"/>
<path d="M36.5037 46.9835C36.5014 45.7706 36.8574 44.5842 37.5264 43.5746C38.1955 42.565 39.1477 41.7774 40.2623 41.3117C41.377 40.846 42.6042 40.723 43.7885 40.9582C44.9729 41.1934 46.0611 41.7764 46.9156 42.6333C47.77 43.4901 48.3523 44.5824 48.5887 45.7718C48.825 46.9613 48.7049 48.1944 48.2434 49.3153C47.7819 50.4361 46.9998 51.3941 45.9963 52.0682C44.9926 52.7425 43.8125 53.1022 42.6052 53.1022C41.8024 53.1114 41.0057 52.9596 40.2621 52.6554C39.5184 52.3514 38.8426 51.9012 38.2744 51.3313C37.7062 50.7615 37.2568 50.0834 36.9527 49.3367C36.6487 48.5902 36.496 47.7901 36.5037 46.9835ZM45.2561 46.9835C45.2426 46.4599 45.0757 45.9519 44.7763 45.5231C44.477 45.0942 44.0585 44.7637 43.573 44.5726C43.0877 44.3814 42.557 44.3385 42.0473 44.4489C41.5377 44.5593 41.0718 44.8182 40.7078 45.1933C40.344 45.5683 40.0982 46.0429 40.0013 46.5576C39.9045 47.0722 39.9609 47.6042 40.1633 48.0869C40.3659 48.5695 40.7055 48.9815 41.1398 49.2712C41.5742 49.5609 42.0839 49.7155 42.6052 49.7156C42.96 49.7224 43.3124 49.6558 43.6404 49.5197C43.9683 49.3835 44.2649 49.181 44.5115 48.9246C44.7581 48.6683 44.9494 48.3635 45.0736 48.0296C45.1978 47.6956 45.2521 47.3395 45.2332 46.9835H45.2561Z" fill="#1A685B"/>
<path d="M50.2949 38.0986C50.2949 37.6854 50.4169 37.2814 50.6453 36.9378C50.8739 36.5943 51.1987 36.3265 51.5786 36.1683C51.9587 36.0102 52.3767 35.9688 52.7801 36.0494C53.1836 36.13 53.5541 36.329 53.8449 36.6212C54.1358 36.9134 54.3338 37.2857 54.414 37.691C54.4943 38.0963 54.4531 38.5164 54.2958 38.8981C54.1384 39.2799 53.8718 39.6063 53.5299 39.8358C53.1878 40.0653 52.7858 40.1879 52.3744 40.1879C51.8239 40.1849 51.2967 39.9638 50.9073 39.5726C50.5179 39.1815 50.2979 38.6518 50.2949 38.0986ZM50.6491 41.1981H54.0769V52.7697H50.6491V41.1981Z" fill="#1A685B"/>
<path d="M69.0222 46.9839C69.0637 47.7488 68.9543 48.5144 68.7002 49.2366C68.446 49.9589 68.0523 50.6235 67.5414 51.1922C67.0306 51.7609 66.4128 52.2225 65.7238 52.5504C65.0347 52.8782 64.2878 53.0659 63.5263 53.1027C62.8869 53.1334 62.2485 53.023 61.6563 52.779C61.064 52.5351 60.5322 52.1635 60.0985 51.6906V57.4305H56.6707V41.198H60.0985V42.2886C60.5322 41.8157 61.064 41.4442 61.6563 41.2002C62.2485 40.9562 62.8869 40.8459 63.5263 40.8766C64.2869 40.9133 65.0327 41.1007 65.721 41.4278C66.4093 41.7551 67.0266 42.2156 67.5372 42.7831C68.0479 43.3505 68.4419 44.0137 68.6967 44.7346C68.9517 45.4555 69.0623 46.2199 69.0222 46.9839ZM65.5944 46.9839C65.5809 46.4451 65.4102 45.9221 65.1037 45.4797C64.7973 45.0374 64.3684 44.695 63.8703 44.4951C63.3721 44.2951 62.8264 44.2464 62.301 44.3549C61.7755 44.4634 61.2932 44.7244 60.9139 45.1055C60.5345 45.4866 60.2749 45.9711 60.1668 46.499C60.0589 47.027 60.1074 47.5752 60.3063 48.0757C60.5054 48.5762 60.8461 49.0071 61.2864 49.3149C61.7268 49.6229 62.2473 49.7943 62.7836 49.8079C63.1578 49.8319 63.5328 49.775 63.8835 49.6412C64.234 49.5074 64.552 49.2997 64.8161 49.0323C65.0802 48.7647 65.2843 48.4435 65.4146 48.0903C65.5448 47.737 65.5984 47.3598 65.5715 46.9839H65.5944Z" fill="#1A685B"/>
<path d="M79.6942 49.3028C79.6942 51.9661 77.409 53.1026 74.8952 53.1026C73.891 53.1919 72.8832 52.9772 72.0015 52.4862C71.1199 51.9952 70.4045 51.2503 69.9478 50.3475L72.9414 48.637C73.0629 49.0546 73.323 49.4178 73.6784 49.6663C74.0339 49.9148 74.4632 50.0337 74.8952 50.0031C75.7294 50.0031 76.1407 49.739 76.1407 49.2798C76.1407 48.0056 70.4276 48.6829 70.4276 44.688C70.4276 42.1624 72.5529 40.8881 74.998 40.8881C75.9003 40.8606 76.7936 41.0759 77.5852 41.512C78.3767 41.9479 79.0378 42.5887 79.5 43.3677L76.4949 44.952C76.3622 44.6488 76.1446 44.3908 75.8688 44.2095C75.5929 44.0281 75.2707 43.9311 74.9409 43.9302C74.3468 43.9302 73.9812 44.1599 73.9812 44.5846C74.0269 45.9047 79.6942 45.0208 79.6942 49.3028Z" fill="#1A685B"/>
<path d="M92.3086 41.1978V52.7694H88.8807V51.6903C88.482 52.1698 87.976 52.5476 87.404 52.7931C86.8321 53.0385 86.2104 53.1444 85.5899 53.1024C83.3047 53.1024 81.2823 51.4377 81.2823 48.3038V41.1978H84.7102V47.7987C84.68 48.08 84.7127 48.3645 84.8056 48.6316C84.8986 48.8986 85.0494 49.1415 85.2475 49.3427C85.4455 49.5439 85.6857 49.6982 85.9504 49.7945C86.2152 49.8909 86.4981 49.9266 86.7783 49.8995C88.0352 49.8995 88.915 49.1648 88.915 47.5232V41.1978H92.3086Z" fill="#1A685B"/>
<path d="M112.121 45.675V52.7695H108.693V45.9735C108.693 44.8256 108.134 44.0678 107.037 44.0678C105.94 44.0678 105.231 44.883 105.231 46.249V52.7695H101.804V45.9735C101.804 44.8256 101.255 44.0678 100.147 44.0678C99.0384 44.0678 98.3529 44.883 98.3529 46.249V52.7695H94.925V41.198H98.3529V42.2656C98.7111 41.794 99.181 41.42 99.7198 41.1774C100.259 40.9348 100.849 40.8313 101.438 40.8765C102.029 40.8476 102.618 40.9732 103.146 41.2406C103.675 41.5082 104.126 41.9088 104.454 42.4033C104.837 41.8863 105.343 41.475 105.927 41.2081C106.51 40.9411 107.152 40.8269 107.791 40.8765C110.396 40.8765 112.121 42.7821 112.121 45.675Z" fill="#1A685B"/>
<path d="M115.047 41.1293C116.46 41.1293 117.606 39.9779 117.606 38.5577C117.606 37.1376 116.46 35.9863 115.047 35.9863C113.633 35.9863 112.487 37.1376 112.487 38.5577C112.487 39.9779 113.633 41.1293 115.047 41.1293Z" fill="#1A685B"/>
<path d="M41.9196 27.1237C48.5393 27.1237 53.9055 21.7321 53.9055 15.0813C53.9055 8.43058 48.5393 3.03906 41.9196 3.03906C35.2999 3.03906 29.9336 8.43058 29.9336 15.0813C29.9336 21.7321 35.2999 27.1237 41.9196 27.1237Z" fill="#1A685B"/>
<path d="M68.7137 27.1237C75.3333 27.1237 80.6996 21.7321 80.6996 15.0813C80.6996 8.43058 75.3333 3.03906 68.7137 3.03906C62.094 3.03906 56.7277 8.43058 56.7277 15.0813C56.7277 21.7321 62.094 27.1237 68.7137 27.1237Z" fill="#1A685B"/>
<path d="M27.1113 3.03906H3.15088V27.1121H27.1113V3.03906Z" fill="#1A685B"/>
</svg>
